<?xml version="1.0" encoding="utf-8"?>
<!-- Generator: Adobe Illustrator 16.0.0, SVG Export Plug-In . SVG Version: 6.00 Build 0)  -->
<!DOCTYPE svg PUBLIC "-//W3C//DTD SVG 1.1//EN" "http://www.w3.org/Graphics/SVG/1.1/DTD/svg11.dtd">
<svg version="1.1" id="Layer_1" xmlns="http://www.w3.org/2000/svg" xmlns:xlink="http://www.w3.org/1999/xlink" x="0px" y="0px"
	 width="720px" height="720px" viewBox="0 0 720 720" enable-background="new 0 0 720 720" xml:space="preserve">
<path fill="#4B77BB" d="M145.475,223.025c-0.38-1.24-0.989-1.466-2.1-0.779c-4.706,2.904-9.393,5.835-14.086,8.761
	c-0.983,0.614-1.392,1.484-1.047,2.617c1.341,4.387,2.693,8.769,4.041,13.158c0.063-0.041,0.127-0.081,0.191-0.121
	c3.22-1.991,6.434-3.987,9.658-5.968c1.228-0.749,1.964-0.59,2.387,0.733c1.059,3.328,2.198,6.639,2.984,10.045l0.002,0.004
	l0.03,0.066c0.215,0.533,0.427,1.07,0.645,1.605c0.027,0.075,0.056,0.148,0.085,0.222c1.258-0.791,2.504-1.606,3.782-2.367
	c1.065-0.637,1.455-1.509,1.092-2.703C150.588,239.875,148.048,231.448,145.475,223.025z M324.042,161.308
	c-0.25-0.503-0.523-0.992-0.807-1.473c-0.069-0.115-0.137-0.229-0.207-0.343c-0.293-0.478-0.597-0.949-0.924-1.407
	c0,0-0.001-0.001-0.001-0.001c-0.003-0.004-0.006-0.008-0.009-0.012c-0.271-0.378-0.559-0.747-0.856-1.109
	c-0.112-0.137-0.23-0.271-0.346-0.405c-0.201-0.233-0.407-0.464-0.618-0.691c-0.133-0.14-0.265-0.279-0.402-0.417
	c-0.224-0.228-0.457-0.451-0.693-0.67c-0.125-0.117-0.25-0.236-0.379-0.351c-0.371-0.328-0.75-0.65-1.149-0.959
	c-11.926,14.982-23.85,29.963-35.781,44.94c-0.324,0.415-0.685,0.802-1.026,1.2c0.012,0.087,0.032,0.173,0.044,0.255
	c1.819,1.418,3.655,2.819,5.461,4.256c7.61,6.057,15.217,12.123,22.822,18.188c0.201-0.204,0.427-0.393,0.602-0.616
	c5.932-7.531,10.689-15.729,13.866-24.789c3.408-9.715,5.073-19.62,2.504-29.834C325.63,165.042,324.938,163.109,324.042,161.308z
	 M238.274,137.631c-0.008-0.072-0.02-0.143-0.035-0.213c-0.014-0.082-0.035-0.159-0.057-0.235c-0.01-0.039-0.029-0.076-0.042-0.114
	c-0.021-0.064-0.043-0.128-0.069-0.191c-0.036-0.086-0.079-0.17-0.125-0.252c-0.029-0.052-0.056-0.104-0.09-0.154
	c-0.06-0.093-0.135-0.181-0.212-0.268c-0.033-0.036-0.059-0.074-0.094-0.109c-0.121-0.119-0.257-0.233-0.415-0.337
	c-1.394,1.782-2.784,3.563-4.179,5.35c1.058,0.851,2.109,1.706,3.167,2.563c1.32-1.3,1.979-2.933,2.152-4.715
	c0.015-0.146,0.024-0.294,0.033-0.44c0.007-0.147,0.007-0.297,0.002-0.443c-0.002-0.077-0.004-0.147-0.01-0.223
	C238.291,137.776,238.283,137.705,238.274,137.631z M401.164,122.618c-0.008-0.021-0.006-0.046-0.012-0.067
	c-0.012-0.051-0.016-0.105-0.03-0.157c-0.006-0.03-0.015-0.053-0.023-0.083c-0.011-0.049-0.025-0.093-0.04-0.14
	c-0.009-0.028-0.021-0.059-0.031-0.087c-0.02-0.044-0.038-0.092-0.057-0.135c-0.015-0.029-0.023-0.057-0.042-0.087
	c-0.024-0.046-0.046-0.089-0.072-0.135c-0.02-0.027-0.03-0.056-0.047-0.082c-0.031-0.046-0.065-0.095-0.102-0.143
	c-0.018-0.022-0.035-0.044-0.052-0.069c-0.053-0.071-0.113-0.137-0.178-0.205c-1.75,1.431-3.503,2.859-5.26,4.294
	c0.842,1.063,1.683,2.13,2.525,3.199c1.574-0.976,2.577-2.422,3.14-4.123c0.048-0.14,0.089-0.282,0.13-0.422
	c0.041-0.143,0.069-0.289,0.099-0.432c0.017-0.076,0.028-0.144,0.037-0.22c0.012-0.071,0.021-0.143,0.028-0.217
	c0.003-0.071,0.011-0.143,0.013-0.215c-0.001-0.083-0.001-0.163-0.004-0.242C401.185,122.772,401.178,122.694,401.164,122.618z
	 M480.359,171.438c-0.051-2.093-0.291-4.13-0.769-6.084c-0.065-0.276-0.141-0.547-0.218-0.815c-0.018-0.063-0.036-0.128-0.051-0.188
	c-0.158-0.538-0.335-1.073-0.528-1.599c-0.022-0.061-0.047-0.128-0.071-0.19c-0.098-0.26-0.2-0.513-0.302-0.764
	c-0.005-0.005-0.009-0.009-0.008-0.017c-0.003-0.008-0.009-0.019-0.013-0.025c-0.088-0.211-0.184-0.42-0.279-0.625
	c-0.031-0.072-0.069-0.144-0.099-0.217c-0.072-0.146-0.146-0.294-0.217-0.442c-0.039-0.076-0.079-0.157-0.118-0.233
	c-0.074-0.147-0.156-0.292-0.233-0.441c-0.039-0.067-0.073-0.137-0.113-0.205c-0.117-0.211-0.239-0.422-0.363-0.627
	c0-0.004-0.005-0.005-0.005-0.005c-0.123-0.208-0.257-0.415-0.391-0.622c-0.04-0.058-0.083-0.125-0.123-0.189
	c-0.1-0.142-0.195-0.288-0.296-0.43c-0.048-0.069-0.101-0.14-0.15-0.209c-0.104-0.142-0.206-0.288-0.315-0.43
	c-0.046-0.061-0.089-0.124-0.137-0.183c-0.151-0.197-0.311-0.397-0.474-0.597c-13.623,10.917-27.246,21.84-40.868,32.752
	l-1.01,9.169l9.014,0.992l-0.335,3.03l-6.31-0.694c5.345,6.667,10.687,13.343,16.027,20.014c0.24-0.154,0.499-0.289,0.721-0.468
	c7.453-6.034,13.904-12.978,19.002-21.111C476.8,191.259,480.612,181.967,480.359,171.438z M460.481,195.373
	c-0.163,1.479-0.487,2.728-0.973,3.76c-0.589,1.255-1.351,2.244-2.272,2.96c-0.695,0.542-1.597,0.927-2.704,1.15
	c-0.83,0.168-1.91,0.179-3.254,0.031l-6.818-0.75l1.977-17.954l6.626,0.729c1.493,0.164,2.619,0.403,3.376,0.715
	c1.021,0.426,1.86,1.08,2.53,1.952c0.662,0.875,1.127,1.905,1.392,3.1C460.626,192.252,460.666,193.691,460.481,195.373z
	 M428.981,193.421c0.316,0.392,0.639,0.778,0.957,1.165l0.255-2.314c-0.393,0.307-0.8,0.596-1.2,0.891
	C428.986,193.25,428.985,193.337,428.981,193.421z M455.896,189.709c-0.396-0.464-0.923-0.804-1.585-1.03
	c-0.492-0.169-1.479-0.334-2.954-0.497l-1.63-0.179l-1.309,11.889l2.704,0.297c1.015,0.112,1.752,0.136,2.216,0.073
	c0.603-0.081,1.115-0.278,1.543-0.586c0.424-0.308,0.808-0.85,1.141-1.629c0.334-0.777,0.576-1.858,0.729-3.249
	c0.153-1.385,0.149-2.466-0.016-3.235C456.573,190.794,456.294,190.176,455.896,189.709z"/>
<path fill="#FEFEFE" d="M341.309,192.676c-3.156-27.751-6.317-55.502-9.437-83.257c-0.113-0.987-0.33-1.157-1.317-1.045
	c-38.696,4.432-77.393,8.833-116.094,13.202c-0.988,0.112-1.161,0.326-1.048,1.313c5.585,48.859,11.135,97.72,16.669,146.582
	c2.02-1.071,4.054-2.128,6.108-3.167c-0.653-6.254-1.441-12.499-2.152-18.75l-0.203-1.789c2.749,3.841,5.833,6.652,9.658,8.633
	c3.602,1.867,7.375,2.854,11.261,3.17c13.037-5.687,26.66-10.721,40.766-15.014c15.951-12.381,27.455-28.177,34.218-47.479
	c0.777-2.212,1.365-4.485,2.037-6.729c0.071,0.001,0.135-0.003,0.202-0.007c1.671,14.693,3.336,29.383,5.003,44.075
	c2.882-0.538,5.779-1.041,8.688-1.515C344.219,218.157,342.758,205.418,341.309,192.676z M323.637,196.905
	c-3.177,9.06-7.934,17.258-13.866,24.789c-0.174,0.223-0.401,0.413-0.602,0.616c-3.317,4.546-7.277,8.494-11.506,12.174
	c-7.529,6.559-15.855,11.783-25.498,14.649c-7.523,2.235-15.071,2.8-22.551-0.241c-1.92-0.782-3.758-1.749-5.302-3.175
	c-1.966-1.405-3.553-3.082-4.851-4.966c-0.243-0.347-0.467-0.707-0.689-1.068c-0.112-0.184-0.227-0.37-0.336-0.563
	c-0.197-0.354-0.395-0.71-0.582-1.076c-0.165-0.325-0.324-0.655-0.482-0.988c-0.363-0.791-0.691-1.6-0.993-2.43
	c-2.659-7.341-2.551-14.862-1.075-22.391c2.586-13.191,8.542-24.799,16.942-35.212c9.793-12.418,21.628-22.102,36.866-27.027
	c7.066-2.286,14.33-2.929,21.559-0.464c0.641,0.219,1.272,0.459,1.891,0.72c1.852,0.794,3.583,1.816,5.087,3.22
	c0.399,0.31,0.78,0.631,1.149,0.959c0.129,0.115,0.253,0.233,0.379,0.351c0.237,0.22,0.469,0.443,0.693,0.67
	c0.137,0.137,0.27,0.277,0.402,0.417c0.211,0.227,0.417,0.458,0.618,0.691c0.116,0.135,0.234,0.268,0.346,0.405
	c0.297,0.362,0.584,0.73,0.856,1.109c0.003,0.003,0.006,0.007,0.009,0.012c0,0,0.001,0.001,0.001,0.001
	c0.328,0.457,0.631,0.928,0.924,1.407c0.071,0.114,0.138,0.228,0.207,0.343c0.283,0.482,0.556,0.971,0.807,1.473
	c0.895,1.801,1.587,3.733,2.099,5.763C328.71,177.285,327.045,187.189,323.637,196.905z M324.898,149.592
	c-5.388-5.568-12.117-8.042-19.723-8.231c-10.539-0.265-20.062,3.197-29.04,8.363c-12.916,7.445-23.274,17.667-31.768,29.84
	c-6.613,9.47-11.544,19.737-14.535,31.002l-0.753-6.619c-2.451-21.552-4.849-43.106-7.398-64.647
	c-0.453-3.799,2.181-8.05,6.779-8.562c29.333-3.268,58.654-6.603,87.971-10.013c3.522-0.407,7.917,1.579,8.55,6.493
	c1.052,8.192,1.908,16.411,2.846,24.616c0.036,0.319,0.072,0.636,0.146,1.29C326.805,151.778,325.903,150.639,324.898,149.592z
	 M235.245,134.365c-2.463,0.239-4.283,1.581-5.771,3.458c-0.191,0.257-0.382,0.514-0.573,0.771
	c-1.406,1.638-2.082,3.548-2.067,5.689c0.013,2.161,1.512,3.626,3.532,3.527c4.451-0.214,9.307-6.123,8.637-10.503
	C238.694,135.3,237.271,134.171,235.245,134.365z M238.307,138.514c-0.008,0.146-0.018,0.294-0.033,0.44
	c-0.173,1.783-0.832,3.416-2.152,4.715c-1.176,1.787-2.828,2.9-4.92,3.29c-0.889,0.164-1.815,0.166-2.512-0.614
	c-1.266-0.856-1.259-2.14-1.127-3.442c0.152-1.507,0.932-2.784,1.64-4.077c0.152-0.106,0.301-0.211,0.45-0.312
	c0.061-0.163,0.119-0.328,0.179-0.491c1.272-1.145,2.527-2.323,4.24-2.794c0.275-0.074,0.549-0.131,0.812-0.165
	c0.807-0.092,1.57,0.054,2.251,0.692c0.158,0.104,0.294,0.218,0.415,0.337c0.035,0.035,0.062,0.073,0.094,0.109
	c0.078,0.087,0.152,0.175,0.212,0.268c0.034,0.05,0.061,0.102,0.09,0.154c0.046,0.083,0.089,0.166,0.125,0.252
	c0.026,0.063,0.049,0.127,0.069,0.191c0.013,0.038,0.032,0.075,0.042,0.114c0.022,0.076,0.043,0.153,0.057,0.235
	c0.015,0.071,0.026,0.142,0.035,0.213c0.008,0.074,0.016,0.145,0.024,0.216c0.006,0.076,0.008,0.146,0.01,0.223
	C238.314,138.216,238.314,138.366,238.307,138.514z M93.904,220.422c0.286-0.141,0.149-0.389,0.026-0.586
	c-0.152-0.237-0.349-0.522-0.652-0.296c-0.88,0.668-1.088-0.109-1.417-0.622c-0.522-0.824-1.03-1.655-1.547-2.485
	c-0.491-0.791-0.955-1.595-1.485-2.356c-0.229-0.33-0.308-1.085-0.92-0.769c-0.574,0.296-1.474,0.445-1.528,1.25
	c-0.21,3.045-0.389,6.096-0.46,9.145c-0.024,1.058,0.624,1.309,1.509,0.77c0.755-0.454,1.518-0.905,2.249-1.402
	c0.476-0.325,0.869-0.387,1.082,0.219c0.615,1.752,1.529,1.249,2.656,0.494c0.76-0.505,1.083-0.878,0.435-1.7
	C93.456,221.575,92.844,220.951,93.904,220.422z M89.281,222.009c-0.674,0.407-1.337,0.828-2.249,1.396
	c0.028-2.036,0.052-3.809,0.086-6.035c0.942,1.515,1.667,2.705,2.417,3.877C89.784,221.64,89.591,221.819,89.281,222.009z
	 M83.01,222.558c-0.831,0.501-1.722,1.459-2.492,1.369c-0.917-0.103-1.162-1.513-1.747-2.324c-0.279-0.388-0.537-0.453-0.919-0.191
	c-0.392,0.268-0.222,0.546-0.038,0.834c0.198,0.311,0.393,0.63,0.59,0.948c1.003,1.61,1.003,1.61-0.62,2.621
	c-0.235,0.146-0.495,0.271-0.702,0.449c-0.328,0.278-1.113,0.319-0.577,1.08c0.478,0.68,0.82,0.056,1.139-0.13
	c2.292-1.332,2.28-1.344,3.884,0.989c0.237,0.342,0.38,0.947,1.027,0.515c0.461-0.306,0.234-0.623,0.044-0.949
	c-0.493-0.84-1.473-1.75-1.357-2.496c0.137-0.894,1.536-1.172,2.367-1.739c0.393-0.269,0.471-0.477,0.202-0.887
	C83.545,222.246,83.312,222.374,83.01,222.558z M153.492,272.438c0,0,0.006-0.022,0.004-0.036c0.003-0.012,0.006-0.022,0.006-0.022
	c-0.01,0.007-0.015,0.013-0.023,0.017c0.003,0.014,0.008,0.025,0.009,0.037L153.492,272.438z M153.401,272.799
	c0.044-0.112,0.076-0.229,0.087-0.365c-0.006-0.003-0.017-0.012-0.024-0.016c0.006-0.009,0.011-0.013,0.015-0.021
	c-0.006-0.021-0.014-0.046-0.019-0.069c-0.112-0.37-0.224-0.742-0.337-1.112c-1.68-5.607-3.364-11.212-5.045-16.82
	c-0.012-0.045-0.026-0.081-0.036-0.127c-0.273-0.907-0.546-1.816-0.818-2.725c-0.013-0.047-0.029-0.093-0.045-0.142
	c-0.975-3.176-1.978-6.342-2.912-9.533c-0.311-1.05-0.79-1.451-1.789-0.831c-5.606,3.484-11.205,6.976-16.809,10.467
	c-0.824,0.512-1.034,1.262-0.79,2.163c0.131,0.494,0.294,0.973,0.444,1.46c0.001,0.01,0.003,0.022,0.008,0.032
	c1.569,5.153,3.136,10.307,4.705,15.461c0.003,0.016,0.008,0.032,0.013,0.048c1.147,3.88,2.499,7.696,3.438,11.635l-0.014,0.008
	c0.011-0.001,0.012,0.002,0.018-0.001c0.961,2.271,0.963,2.271,3.093,0.944c4.642-2.89,9.282-5.78,13.927-8.671
	c0.957-0.596,1.955-1.143,2.753-1.958C153.318,272.686,153.366,272.747,153.401,272.799z M150.452,272.403
	c-2.382,1.451-4.745,2.94-7.112,4.415c-2.291,1.426-4.574,2.86-6.866,4.273c-1.236,0.759-1.859,0.56-2.282-0.815
	c-2.551-8.351-5.066-16.709-7.606-25.063c-0.372-1.238-0.015-2.167,1.078-2.848c4.66-2.893,9.31-5.806,13.977-8.688
	c1.122-0.693,1.737-0.51,2.104,0.69c2.614,8.473,5.204,16.954,7.78,25.446C151.859,270.923,151.463,271.781,150.452,272.403z
	 M155.596,153.655c-31.716,19.782-63.447,39.536-95.194,59.269c-0.808,0.502-0.986,0.763-0.422,1.661
	c14.254,22.819,28.461,45.667,42.681,68.508c4.754,7.637,9.501,15.277,14.254,22.914c0.603-0.186,1.18-0.291,1.727-0.301
	l49.55-2.528c8.829-9.061,14.515-20.184,18.502-32.36c4.475-13.689,6.114-27.712,4.319-42.065c-0.245-1.95-0.595-3.882-0.909-5.881
	c0.505,0.204,0.609,0.635,0.813,0.963c10.387,16.671,20.765,33.344,31.146,50.02c2.407-1.36,4.848-2.69,7.308-4.004
	c-24.052-38.594-48.094-77.197-72.104-115.82C156.725,153.158,156.428,153.136,155.596,153.655z M176.777,256.405
	c-1.265,0.789-2.491,1.648-3.809,2.334c-0.916,0.482-0.946,1.028-0.675,1.896c1.441,4.586,2.84,9.185,4.247,13.785
	c0.542,1.762,0.327,2.328-1.279,3.327c-5.209,3.255-10.427,6.502-15.644,9.74c-0.833,0.512-1.669,1.372-2.604,0.073
	c-0.167-0.229-0.459,0.2-0.728,0.237c-0.876,0.41-1.491,0.039-1.725-0.78c-0.903-3.186-2.082-6.294-2.789-9.535
	c-0.174-0.373-0.349-0.743-0.572-1.203c-4.241,2.641-8.44,5.262-12.649,7.867c-0.781,0.48-1.588,1.37-2.469,0.099
	c-0.045-0.064-0.237-0.058-0.355-0.041c-1.967,0.294-1.967,0.294-2.484-1.748c-1.284-3.918-2.518-7.847-3.576-11.836
	c-0.023-0.047-0.041-0.104-0.05-0.188c-1.478-4.756-2.95-9.511-4.435-14.265c-0.137-0.435-0.344-0.854-0.521-1.278
	c-0.623-2.382-0.36-3.088,1.611-4.316c1.184-0.742,2.324-1.555,3.562-2.183c0.915-0.469,0.986-1.014,0.664-1.864
	c-0.33-0.862-0.563-1.758-0.832-2.638c-0.735-2.496-1.47-4.99-2.203-7.481c-0.016-0.043-0.031-0.089-0.043-0.147
	c-0.429-1.351-0.915-2.683-1.275-4.055c-0.224-0.85-0.108-1.701,0.687-2.294c5.843-3.641,11.681-7.28,17.521-10.926
	c0.313-0.287,0.548-0.116,0.776,0.126c-5.915,3.652-11.828,7.309-17.741,10.959c-0.818,0.503-1.095,1.192-0.807,2.122
	c0.432,1.41,0.843,2.825,1.262,4.24c0.734,2.5,1.468,5.004,2.202,7.504c0.02,0.035,0.03,0.077,0.041,0.121
	c0.375,1.101,0.75,2.198,1.131,3.309c0.447-0.048,0.733-0.358,1.064-0.584c-1.347-4.389-2.699-8.771-4.041-13.158
	c-0.345-1.133,0.064-2.003,1.047-2.617c4.693-2.926,9.381-5.857,14.086-8.761c1.111-0.687,1.72-0.461,2.1,0.779
	c2.573,8.423,5.113,16.85,7.665,25.275c0.362,1.193-0.027,2.066-1.092,2.703c-1.278,0.761-2.524,1.577-3.782,2.367
	c0.457,1.931,0.457,1.931,2.08,0.92c1.103-0.686,2.186-1.404,3.307-2.052c1.192-0.678,1.511-1.557,1.09-2.9
	c-1.595-5.099-3.112-10.218-4.656-15.335c-0.049-0.165-0.046-0.348-0.066-0.52c0.003-0.002,0.007-0.004,0.007-0.004
	c-0.002-0.003-0.008-0.006-0.015-0.008c-0.127-0.339-0.27-0.676-0.382-1.023c-1.438-4.419-2.562-8.939-4.189-13.303
	c0.594,0.201,0.94,0.833,1.843,0.51c0.787-0.284,1.035,0.759,1.233,1.396c0.878,2.821,1.71,5.663,2.565,8.49
	c0.131,0.438,0.293,0.861,0.466,1.375c4.364-2.716,8.666-5.389,12.965-8.075c0.962-0.605,1.887-1.195,2.668,0.221
	c0.05,0.085,0.248,0.183,0.31,0.148c1.739-0.887,1.844,0.568,2.146,1.566c2.857,9.323,5.689,18.659,8.522,27.991
	C178.784,254.82,178.612,255.26,176.777,256.405z M158.861,172.368c4.31,6.805,8.528,13.663,12.78,20.5
	c0.066,0.108,0.088,0.24,0.234,0.64c-7.545-4.166-15.124-4.348-22.787-1.457c-6.604,2.488-12.083,6.686-16.854,11.816
	c-9.349,10.06-15.324,21.987-19.104,35.075c-3.991,13.828-5.322,27.87-2.938,42.15c0.163,0.958,0.343,1.914,0.522,2.92
	c-0.403,0.02-0.45-0.361-0.583-0.578c-12.088-19.398-24.171-38.798-36.242-58.207c-2.207-3.543-1.11-7.8,2.594-10.106
	c19.635-12.234,39.273-24.457,58.915-36.684c4.427-2.756,8.845-5.522,13.281-8.263C152.41,167.864,156.531,168.696,158.861,172.368z
	 M164.971,223.029c-4.747,2.936-9.47,5.909-14.227,8.827c-0.674,0.415-0.756,0.851-0.478,1.488c0.009,0.022,0.019,0.049,0.023,0.075
	c0.073,0.259,0.008,0.569,0.292,0.747c4.46-2.771,8.918-5.546,13.384-8.321c1.637-1.015,2.121-0.845,2.671,0.96
	c2.497,8.202,4.972,16.41,7.482,24.606c0.422,1.372,0.035,2.296-1.181,3.04c-4.556,2.799-9.084,5.645-13.624,8.46
	c-1.484,0.923-1.941,0.742-2.467-0.961c-0.965-3.148-1.928-6.293-2.889-9.441c-0.004,0.002-0.004,0.002-0.008,0.005
	c-0.437,0.115-0.684,0.303-0.802,0.543c-0.158,0.317-0.089,0.738,0.066,1.237c0.941,3.014,1.992,5.995,2.693,9.082
	c-0.001,0.008,0.002,0.017,0.007,0.024c0.12,0.299,0.264,0.587,0.358,0.894c0.639,2.097,0.891,2.196,2.741,1.044
	c5.211-3.244,10.415-6.506,15.645-9.72c1.175-0.72,1.55-1.581,1.146-2.902c-2.95-9.628-5.869-19.262-8.798-28.893
	C166.609,222.527,166.121,222.321,164.971,223.029z M169.019,261.241c0.005,0.016,0.007,0.03,0.011,0.046
	c0.047,0.254,0.077,0.514,0.151,0.762c1.071,3.54,2.147,7.08,3.234,10.622c0.389,1.271,0.298,2.333-0.981,3.123
	c-4.672,2.874-9.313,5.792-13.976,8.682c-1.253,0.775-1.786,0.563-2.224-0.845c-0.967-3.115-1.919-6.24-2.877-9.364
	c-0.034-0.104-0.066-0.21-0.098-0.312c-0.838,0.289-1.211,0.73-0.74,1.652c0.27,0.522,0.34,1.147,0.499,1.723
	c0.006,0.024,0.013,0.043,0.022,0.065c0.903,2.934,1.82,5.865,2.711,8.8c0.241,0.785,0.585,1.36,1.457,1.249
	c0.065-0.008,0.132-0.02,0.201-0.037c5.515-3.446,11.021-6.904,16.548-10.329c1.09-0.673,1.601-1.49,1.208-2.77
	c-1.308-4.229-2.645-8.452-3.876-12.705C169.981,260.539,169.604,260.791,169.019,261.241z"/>
<path fill="#2EA059" d="M280.887,199.866c-0.141,0.134-0.3,0.243-0.418,0.392c-12.054,15.152-24.106,30.309-36.155,45.46
	c1.544,1.426,3.382,2.393,5.302,3.175c7.479,3.041,15.027,2.476,22.551,0.241c9.643-2.866,17.969-8.09,25.498-14.649
	c4.229-3.68,8.188-7.627,11.506-12.174c-7.605-6.065-15.212-12.131-22.822-18.188C284.542,202.685,282.706,201.284,280.887,199.866z
	 M232.909,141.107l-0.017-0.002c-0.011,0.001-0.021,0.002-0.026,0.003l-0.014-0.003c-1.386,1.75-2.771,3.493-4.161,5.24
	c0.697,0.78,1.624,0.778,2.512,0.614c2.092-0.39,3.744-1.502,4.92-3.29c-1.058-0.857-2.109-1.713-3.167-2.563
	C232.956,141.106,232.933,141.104,232.909,141.107z M435.578,201.546l-6.328-0.696l0.688-6.264
	c-0.318-0.387-0.641-0.772-0.957-1.165c-0.167,0.099-0.352,0.169-0.496,0.289c-0.748,0.601-1.494,1.198-2.243,1.799l-0.545,4.949
	l-3.626-0.399l0.145-1.321c-11.209,8.991-22.416,17.985-33.624,26.977c18.69-0.979,36.962-0.237,54.553,2.034
	c2.966-1.845,5.811-3.875,8.461-6.188C446.265,214.889,440.923,208.212,435.578,201.546z M392.214,130.841
	c2.13,0.083,3.987-0.637,5.53-2.121c-0.843-1.069-1.684-2.137-2.525-3.199l-0.044-0.01l-0.015-0.006
	c-0.012-0.001-0.024-0.002-0.031-0.003l-0.012-0.006c-1.736,1.4-3.477,2.795-5.214,4.19
	C390.411,130.603,391.316,130.806,392.214,130.841z M166.637,226.805c-0.551-1.805-1.034-1.975-2.671-0.96
	c-4.466,2.775-8.924,5.55-13.384,8.321c0.004,0.022,0.011,0.042,0.022,0.063c1.515,4.953,3.036,9.9,4.543,14.858
	c0.494,1.597,0.247,2.352-1.064,3.328c-0.041,0.031-0.083,0.063-0.124,0.094c0.961,3.148,1.923,6.293,2.889,9.441
	c0.525,1.703,0.983,1.884,2.467,0.961c4.54-2.816,9.068-5.661,13.624-8.46c1.215-0.744,1.603-1.668,1.181-3.04
	C171.609,243.215,169.134,235.007,166.637,226.805z"/>
<path fill="#FFFFFF" d="M505.162,240.2c0.339,1.09,0.739,2.133,1.177,3.151c14.034,5.272,27.244,11.572,39.419,18.767
	c4.844-0.326,9.656-1.19,14.425-2.487c21.646-5.893,39.771-17.353,53.972-34.836c1.26-1.561,2.412-3.208,3.802-4.746l-0.293,1.181
	c-5.666,22.845-11.33,45.683-16.995,68.525c-0.032,0.129-0.081,0.241-0.117,0.366c2.752,1.295,5.428,2.716,8.029,4.249
	c12.296-49.658,24.605-99.313,36.943-148.961c0.24-0.971,0.1-1.209-0.868-1.449c-38.051-9.403-76.095-18.838-114.125-28.304
	c-0.973-0.241-1.209-0.097-1.45,0.875c-6.722,27.237-13.481,54.472-20.235,81.703c-3.492,14.085-6.996,28.166-10.491,42.249
	c2.08,0.707,4.142,1.441,6.188,2.193C504.748,241.85,504.957,241.025,505.162,240.2z M588.151,201.523
	c-0.67,1.382-1.457,2.703-2.656,4.309c-0.452-0.948-0.917-1.893-1.353-2.85c-0.262-0.579-0.568-0.64-1.116-0.299
	c-2.021,1.253-4.063,2.485-6.122,3.682c-0.612,0.349-0.548,0.637-0.287,1.22c1.043,2.338,2.175,4.668,2.034,7.333
	c-0.216,4.1-2.187,7.164-5.644,9.276c-5.395,3.289-10.809,6.557-16.254,9.771c-0.951,0.554-1.131,0.985-0.432,1.829
	c0.594,0.717,0.143,1.816,0.85,2.648c-6.052,0.05-12.111,0.098-18.284,0.148c0.253-0.579,0.455-1.04,0.724-1.652
	c-0.947-0.018-1.785-0.032-2.803-0.053c3.191-5.918,6.311-11.71,9.645-17.882c0.625,1.2,1.158,2.076,1.558,3.005
	c0.43,1.002,0.916,0.932,1.727,0.395c1.705-1.116,3.471-2.16,5.251-3.166c0.817-0.467,1.114-0.777,0.645-1.846
	c-2.419-5.524-1.604-10.372,2.177-14.042c0.766-0.75,1.627-1.367,2.552-1.917c5.251-3.156,10.483-6.337,15.748-9.464
	c0.78-0.467,0.859-0.761,0.489-1.646c-0.413-0.96-0.806-1.944-1.438-2.988c6.752-0.051,13.288-0.104,19.888-0.159
	C593.688,192.505,590.455,196.792,588.151,201.523z M531.049,135.714c0.76-3.065,2.285-5.084,4.451-6.003
	c0.595-0.251,1.241-0.42,1.929-0.503c1.192-0.146,2.526-0.047,3.993,0.317c28.315,7.022,56.625,14.043,84.935,21.064
	c5.372,1.332,7.587,4.996,6.26,10.349c-1.989,8.021-3.979,16.042-5.975,24.09c-0.608-0.128-0.474-0.687-0.581-1.03
	c-2.54-8.23-8.009-13.815-15.747-17.238c-9.872-4.363-20.247-4.709-30.646-2.84c-26.323,4.725-47.657,17.791-63.976,39
	c-0.55,0.713-1.063,1.443-1.59,2.164c-0.072-0.044-0.149-0.095-0.221-0.147C519.604,181.861,525.321,158.794,531.049,135.714z"/>
<path fill="#010101" d="M295.521,242.554c13.412-4.082,27.259-7.491,41.46-10.14c-1.667-14.691-3.333-29.382-5.003-44.075
	c-0.067,0.003-0.131,0.008-0.202,0.007c-0.671,2.244-1.259,4.517-2.037,6.729C322.976,214.377,311.473,230.173,295.521,242.554z
	 M229.08,203.948l0.753,6.619c2.991-11.266,7.922-21.532,14.535-31.002c8.494-12.173,18.852-22.395,31.768-29.84
	c8.978-5.166,18.501-8.628,29.04-8.363c7.606,0.189,14.335,2.663,19.723,8.231c1.005,1.046,1.907,2.186,3.076,3.532
	c-0.074-0.654-0.11-0.971-0.146-1.29c-0.938-8.205-1.794-16.423-2.846-24.616c-0.633-4.914-5.028-6.9-8.55-6.493
	c-29.317,3.411-58.638,6.746-87.971,10.013c-4.598,0.511-7.232,4.763-6.779,8.562C224.231,160.841,226.629,182.396,229.08,203.948z
	 M228.901,138.595c0.191-0.257,0.381-0.514,0.573-0.771c1.489-1.877,3.308-3.219,5.771-3.458c2.025-0.194,3.449,0.935,3.758,2.943
	c0.67,4.381-4.186,10.289-8.637,10.503c-2.021,0.099-3.52-1.366-3.532-3.527C226.819,142.143,227.495,140.232,228.901,138.595z
	 M233.836,245.765l0.203,1.789c0.711,6.251,1.499,12.496,2.152,18.75c6.043-3.058,12.234-5.974,18.564-8.736
	c-3.887-0.316-7.659-1.303-11.261-3.17C239.669,252.417,236.585,249.605,233.836,245.765z M397.851,165.55
	c10.972-9.995,23.332-17.675,37.578-22.082c9.892-3.054,19.95-4.326,30.169-1.738c7.374,1.865,13.388,5.765,17.411,12.386
	c0.756,1.244,1.383,2.554,2.225,4.125c0.073-0.655,0.107-0.971,0.143-1.291c0.898-8.208,1.88-16.414,2.663-24.636
	c0.47-4.932-3.379-7.84-6.9-8.221c-29.347-3.152-58.685-6.381-88.011-9.676c-4.597-0.518-8.104,3.047-8.502,6.852
	c-2.275,21.572-4.699,43.124-7.071,64.684l-0.729,6.622C382.229,182.248,389.31,173.325,397.851,165.55z M391.213,131.489
	c-1.992-0.35-3.129-2.11-2.666-4.222c0.459-2.091,1.543-3.805,3.274-5.091c0.243-0.208,0.486-0.417,0.728-0.625
	c1.868-1.501,3.94-2.409,6.396-2.098c2.015,0.258,3.155,1.675,3.011,3.701C401.642,127.573,395.604,132.264,391.213,131.489z
	 M450.238,228.758c9.088,1.399,17.975,3.211,26.635,5.395c1.493-13.561,2.99-27.121,4.483-40.684
	c-0.065-0.011-0.131-0.02-0.197-0.037c-1.151,2.04-2.228,4.126-3.472,6.113C470.294,211.338,461.112,221.054,450.238,228.758z
	 M167.491,223.209c-0.063,0.035-0.26-0.063-0.31-0.148c-0.781-1.416-1.706-0.826-2.668-0.221c-4.299,2.686-8.601,5.359-12.965,8.075
	c-0.173-0.514-0.335-0.938-0.466-1.375c-0.855-2.827-1.687-5.669-2.565-8.49c-0.198-0.636-0.446-1.68-1.233-1.396
	c-0.903,0.323-1.249-0.309-1.843-0.51c1.627,4.364,2.75,8.884,4.189,13.303c0.113,0.347,0.255,0.684,0.382,1.023
	c0.007,0.002,0.013,0.004,0.015,0.008c0,0-0.004,0.001-0.007,0.004c0.02,0.172,0.018,0.355,0.066,0.52
	c1.544,5.117,3.061,10.237,4.656,15.335c0.421,1.343,0.103,2.222-1.09,2.9c-1.121,0.648-2.204,1.366-3.307,2.052
	c-1.624,1.011-1.624,1.011-2.08-0.92c-0.029-0.074-0.058-0.147-0.085-0.222c-0.217-0.535-0.43-1.073-0.645-1.605l-0.03-0.066
	l-0.002-0.004c-0.786-3.407-1.925-6.717-2.984-10.045c-0.423-1.324-1.159-1.482-2.387-0.733c-3.225,1.98-6.438,3.977-9.658,5.968
	c-0.064,0.04-0.128,0.08-0.191,0.121c-0.332,0.226-0.617,0.536-1.064,0.584c-0.381-1.11-0.756-2.208-1.131-3.309
	c-0.01-0.044-0.021-0.086-0.041-0.121c-0.733-2.5-1.467-5.005-2.202-7.504c-0.419-1.415-0.83-2.83-1.262-4.24
	c-0.288-0.93-0.012-1.619,0.807-2.122c5.913-3.65,11.826-7.307,17.741-10.959c-0.228-0.242-0.464-0.413-0.776-0.126
	c-5.84,3.646-11.678,7.285-17.521,10.926c-0.795,0.594-0.911,1.444-0.687,2.294c0.36,1.372,0.846,2.704,1.275,4.055
	c0.012,0.058,0.027,0.104,0.043,0.147c0.733,2.491,1.468,4.985,2.203,7.481c0.27,0.88,0.502,1.776,0.832,2.638
	c0.323,0.85,0.251,1.395-0.664,1.864c-1.237,0.627-2.377,1.44-3.562,2.183c-1.972,1.228-2.234,1.934-1.611,4.316
	c0.176,0.424,0.383,0.843,0.521,1.278c1.485,4.754,2.957,9.509,4.435,14.265c0.009,0.084,0.027,0.142,0.05,0.188
	c1.058,3.989,2.292,7.918,3.576,11.836c0.517,2.042,0.517,2.042,2.484,1.748c0.119-0.017,0.311-0.023,0.355,0.041
	c0.881,1.271,1.688,0.381,2.469-0.099c4.208-2.605,8.408-5.226,12.649-7.867c0.223,0.46,0.397,0.83,0.572,1.203
	c0.707,3.241,1.886,6.349,2.789,9.535c0.234,0.818,0.849,1.19,1.725,0.78c0.269-0.037,0.561-0.466,0.728-0.237
	c0.934,1.299,1.771,0.439,2.604-0.073c5.216-3.237,10.435-6.485,15.644-9.74c1.606-0.999,1.821-1.564,1.279-3.327
	c-1.407-4.6-2.806-9.199-4.247-13.785c-0.271-0.867-0.24-1.414,0.675-1.896c1.317-0.686,2.543-1.546,3.809-2.334
	c1.835-1.146,2.007-1.585,1.382-3.639c-2.833-9.332-5.665-18.668-8.522-27.991C169.335,223.777,169.23,222.323,167.491,223.209z
	 M174.164,274.308c0.394,1.28-0.118,2.097-1.208,2.77c-5.527,3.425-11.034,6.883-16.548,10.329
	c-0.069,0.017-0.136,0.029-0.201,0.037c-0.872,0.111-1.216-0.464-1.457-1.249c-0.891-2.935-1.808-5.866-2.711-8.8
	c-0.009-0.021-0.016-0.041-0.022-0.065c-0.158-0.576-0.229-1.201-0.499-1.723c-0.471-0.921-0.098-1.363,0.74-1.652
	c0.448-0.332,0.937-0.631,1.142-1.156c-0.035-0.052-0.083-0.113-0.138-0.171c-0.798,0.815-1.796,1.362-2.753,1.958
	c-4.645,2.891-9.285,5.781-13.927,8.671c-2.13,1.327-2.132,1.327-3.093-0.944c-0.006,0.003-0.007,0-0.018,0.001l0.014-0.008
	c-0.94-3.939-2.292-7.755-3.438-11.635c-0.004-0.016-0.009-0.033-0.013-0.048c-1.568-5.154-3.136-10.309-4.705-15.461
	c-0.005-0.01-0.007-0.022-0.008-0.032c-0.15-0.487-0.313-0.966-0.444-1.46c-0.244-0.901-0.034-1.651,0.79-2.163
	c5.604-3.492,11.203-6.983,16.809-10.467c0.999-0.62,1.478-0.219,1.789,0.831c0.935,3.19,1.937,6.356,2.912,9.533
	c0.016,0.048,0.033,0.094,0.045,0.142c0.272,0.908,0.545,1.818,0.818,2.725c0.01,0.046,0.024,0.082,0.036,0.127
	c1.681,5.608,3.365,11.213,5.045,16.82c0.113,0.37,0.225,0.743,0.337,1.112c0.005,0.023,0.013,0.049,0.019,0.069
	c0.008-0.004,0.013-0.01,0.023-0.017c0,0-0.002,0.011-0.006,0.022c0.001,0.014-0.004,0.036-0.004,0.036
	c0.313-0.587,0.168-1.18-0.006-1.76c-1.154-3.806-2.307-7.619-3.48-11.419c-0.749-2.43-1.022-3.31-0.221-4.114
	c0.453-0.46,1.257-0.894,2.523-1.576c0.013-0.008,0.036-0.012,0.06-0.019c0.037-0.009,0.088-0.018,0.167-0.038
	c1.043,3.322,2.094,6.646,3.14,9.974c0.007,0.02,0.013,0.035,0.018,0.055c0.737,2.876,0.83,3.95,4.104,1.746
	c2.799-1.884,5.719-3.59,8.588-5.376c0.244,0.502,0.437,0.917,0.634,1.332c0.586-0.45,0.962-0.702,1.269,0.362
	C171.519,265.856,172.856,270.079,174.164,274.308z M174.659,255.619c-5.23,3.214-10.433,6.476-15.645,9.72
	c-1.85,1.152-2.102,1.053-2.741-1.044c-0.094-0.307-0.238-0.595-0.358-0.894c-0.005-0.007-0.008-0.016-0.007-0.024
	c-0.702-3.087-1.752-6.068-2.693-9.082c-0.155-0.499-0.224-0.919-0.066-1.237c0.118-0.241,0.365-0.429,0.802-0.543
	c0.003-0.003,0.003-0.003,0.008-0.005c0.041-0.031,0.083-0.063,0.124-0.094c1.311-0.976,1.558-1.731,1.064-3.328
	c-1.507-4.958-3.028-9.905-4.543-14.858c-0.011-0.022-0.018-0.042-0.022-0.063c-0.284-0.177-0.219-0.488-0.292-0.747
	c-0.004-0.025-0.014-0.053-0.023-0.075c-0.279-0.637-0.196-1.073,0.478-1.488c4.757-2.918,9.48-5.891,14.227-8.827
	c1.15-0.708,1.638-0.501,2.036,0.795c2.929,9.63,5.848,19.264,8.798,28.893C176.209,254.039,175.833,254.899,174.659,255.619z
	 M87.119,217.37c-0.034,2.226-0.058,3.999-0.086,6.035c0.911-0.568,1.574-0.989,2.249-1.396c0.31-0.19,0.503-0.369,0.254-0.762
	C88.786,220.075,88.061,218.885,87.119,217.37z M153.488,272.434c-0.001-0.011-0.006-0.022-0.009-0.037
	c-0.004,0.008-0.009,0.012-0.015,0.021C153.472,272.421,153.482,272.43,153.488,272.434z M168.192,303.177l2.753-0.141
	c2.155-0.082,4.132,0.614,5.672,1.835c13.675-11.254,28.916-21.676,45.446-31.019c-10.381-16.676-20.759-33.349-31.146-50.02
	c-0.205-0.328-0.308-0.759-0.813-0.963c0.314,2,0.664,3.932,0.909,5.881c1.795,14.353,0.156,28.376-4.319,42.065
	C182.708,282.993,177.021,294.116,168.192,303.177z M110.713,284.012c-0.179-1.006-0.359-1.961-0.522-2.92
	c-2.383-14.28-1.053-28.322,2.938-42.15c3.78-13.088,9.755-25.015,19.104-35.075c4.771-5.13,10.25-9.328,16.854-11.816
	c7.663-2.891,15.242-2.709,22.787,1.457c-0.146-0.4-0.167-0.532-0.234-0.64c-4.252-6.837-8.471-13.695-12.78-20.5
	c-2.33-3.672-6.451-4.504-10.183-2.193c-4.437,2.741-8.854,5.507-13.281,8.263c-19.642,12.227-39.28,24.449-58.915,36.684
	c-3.704,2.306-4.801,6.563-2.594,10.106c12.071,19.408,24.154,38.808,36.242,58.207C110.264,283.651,110.31,284.032,110.713,284.012
	z M83.608,223.534c-0.831,0.567-2.23,0.846-2.367,1.739c-0.116,0.746,0.864,1.656,1.357,2.496c0.19,0.326,0.417,0.643-0.044,0.949
	c-0.647,0.432-0.791-0.173-1.027-0.515c-1.604-2.333-1.592-2.321-3.884-0.989c-0.318,0.186-0.661,0.81-1.139,0.13
	c-0.536-0.761,0.25-0.802,0.577-1.08c0.207-0.177,0.467-0.302,0.702-0.449c1.623-1.01,1.623-1.01,0.62-2.621
	c-0.197-0.318-0.392-0.637-0.59-0.948c-0.184-0.289-0.354-0.566,0.038-0.834c0.382-0.261,0.64-0.197,0.919,0.191
	c0.584,0.811,0.83,2.221,1.747,2.324c0.771,0.09,1.662-0.867,2.492-1.369c0.302-0.185,0.536-0.313,0.801,0.089
	C84.079,223.057,84.001,223.265,83.608,223.534z M93.417,223.784c-1.127,0.754-2.042,1.258-2.656-0.494
	c-0.212-0.606-0.605-0.544-1.082-0.219c-0.731,0.497-1.493,0.948-2.249,1.402c-0.885,0.539-1.534,0.288-1.509-0.77
	c0.071-3.049,0.25-6.1,0.46-9.145c0.055-0.805,0.954-0.955,1.528-1.25c0.612-0.316,0.691,0.439,0.92,0.769
	c0.53,0.762,0.994,1.566,1.485,2.356c0.517,0.83,1.025,1.661,1.547,2.485c0.329,0.513,0.537,1.291,1.417,0.622
	c0.303-0.226,0.5,0.059,0.652,0.296c0.123,0.198,0.26,0.445-0.026,0.586c-1.061,0.529-0.448,1.153-0.052,1.662
	C94.5,222.906,94.178,223.279,93.417,223.784z M554.988,219.238c-1.78,1.006-3.546,2.049-5.251,3.166
	c-0.811,0.537-1.297,0.608-1.727-0.395c-0.399-0.929-0.933-1.805-1.558-3.005c-3.334,6.172-6.453,11.964-9.645,17.882
	c1.018,0.021,1.855,0.035,2.803,0.053c-0.269,0.612-0.471,1.073-0.724,1.652c6.173-0.05,12.232-0.098,18.284-0.148
	c-0.707-0.833-0.256-1.931-0.85-2.648c-0.699-0.844-0.52-1.275,0.432-1.829c5.445-3.214,10.859-6.482,16.254-9.771
	c3.457-2.113,5.428-5.176,5.644-9.276c0.141-2.666-0.991-4.995-2.034-7.333c-0.261-0.583-0.325-0.871,0.287-1.22
	c2.06-1.197,4.102-2.429,6.122-3.682c0.548-0.341,0.854-0.28,1.116,0.299c0.436,0.957,0.9,1.901,1.353,2.85
	c1.199-1.606,1.986-2.927,2.656-4.309c2.304-4.732,5.537-9.018,6.896-14.348c-6.6,0.055-13.136,0.107-19.888,0.159
	c0.633,1.043,1.025,2.027,1.438,2.988c0.37,0.885,0.291,1.179-0.489,1.646c-5.265,3.127-10.497,6.309-15.748,9.464
	c-0.925,0.551-1.786,1.167-2.552,1.917c-3.781,3.67-4.596,8.518-2.177,14.042C556.103,218.461,555.806,218.771,554.988,219.238z
	 M555.649,214.803c-1.519-4.64,0.362-9.612,4.766-12.295c5.389-3.293,10.815-6.531,16.229-9.792c2.05-1.237,2.06-1.248,0.845-3.247
	c-0.203-0.325-0.513-0.587-0.772-0.884c0.09-0.116,0.186-0.236,0.275-0.351c5.494-0.044,10.988-0.088,16.714-0.131
	c-2.708,5.02-5.317,9.871-7.932,14.72c-0.158,0.068-0.324,0.129-0.491,0.194c-0.274-0.673-0.564-1.336-0.829-2.009
	c-0.409-1.03-0.909-1.141-1.907-0.523c-6.424,3.936-12.891,7.798-19.348,11.682c-1.867,1.132-3.806,2.167-5.597,3.418
	C556.338,216.47,556.01,215.913,555.649,214.803z M574.311,208.645c1.55-0.94,1.55-0.94,2.132,0.833
	c1.424,4.363-0.499,9.465-4.615,11.981c-5.682,3.482-11.392,6.92-17.122,10.304c-1.077,0.636-1.404,1.119-0.563,2.17
	c0.4,0.509,0.832,1.065,0.962,1.914c-5.22,0.047-10.295,0.082-15.37,0.155c-1.074,0.016-1.278-0.294-0.758-1.256
	c2.44-4.457,4.836-8.935,7.291-13.479c0.794,0.441,1.056,1.264,1.411,1.951c0.481,0.915,0.908,0.949,1.774,0.425
	C557.722,218.616,566.019,213.637,574.311,208.645z M533.832,148.9c1.682-0.008,3.332-0.025,4.979-0.037
	c-0.191-0.226-0.066-0.526-0.231-0.721c-0.189-0.232-0.141-0.348,0.117-0.497c1.482-0.873,2.954-1.768,4.42-2.663
	c0.946-0.57,1.479-1.406,1.538-2.519c0.038-0.73-0.269-1.364-0.558-2c-0.061-0.16-0.083-0.236,0.082-0.333
	c0.563-0.321,1.119-0.659,1.669-0.999c0.152-0.094,0.228-0.076,0.3,0.081c0.118,0.261,0.251,0.516,0.375,0.773
	c0.321-0.434,0.541-0.797,0.72-1.172c0.627-1.286,1.507-2.455,1.878-3.904c-1.315,0.012-2.619,0.021-3.941,0.03
	c-0.281,0.003-0.571,0.003-0.847,0.007c-0.094,0.005-0.188,0.003-0.281,0.003c-0.017,0.002-0.028,0.002-0.044-0.002
	c-0.102,0.004-0.203,0.008-0.301,0.005c0.018,0.026,0.026,0.047,0.043,0.073c0.147,0.256,0.245,0.503,0.35,0.739
	c0.102,0.241,0.08,0.324-0.135,0.449c-1.428,0.851-2.858,1.715-4.286,2.573c-0.248,0.154-0.483,0.325-0.695,0.526
	c-0.483,0.473-0.789,1.011-0.902,1.608c-0.037,0.167-0.054,0.347-0.056,0.522c-0.004,0.165,0.003,0.333,0.027,0.505
	c0.004,0.036,0.004,0.07,0.013,0.109c0.006,0.04,0.019,0.083,0.023,0.122c0.06,0.309,0.16,0.625,0.305,0.956
	c0.128,0.292,0.044,0.377-0.179,0.504c-0.483,0.271-0.964,0.553-1.424,0.858c-0.226,0.146-0.36,0.165-0.474-0.104
	c-0.108-0.255-0.255-0.496-0.423-0.819c-0.378,0.702-0.748,1.381-1.107,2.055c-0.06,0.102-0.112,0.211-0.171,0.312
	c-0.053,0.092-0.096,0.181-0.147,0.274c-0.398,0.741-0.799,1.478-1.201,2.228c0.278-0.001,0.502,0.005,0.764,0.009
	C533.957,148.621,533.903,148.746,533.832,148.9z M538.4,142.428c-0.048-0.128-0.072-0.262-0.098-0.39
	c-0.005-0.03-0.015-0.054-0.021-0.085c0.002-0.015,0.005-0.029-0.002-0.051c-0.03-0.254-0.025-0.507,0.017-0.76
	c-0.001-0.009,0.002-0.024,0.007-0.042c0.13-0.801,0.615-1.539,1.39-2.017c1.47-0.898,2.945-1.779,4.414-2.665
	c0.562-0.337,0.566-0.341,0.232-0.885c-0.051-0.087-0.14-0.159-0.206-0.239c0.021-0.032,0.05-0.065,0.074-0.097
	c0.649-0.005,1.294-0.012,1.959-0.019c0.037,0,0.081-0.001,0.124,0c0.135-0.001,0.263-0.001,0.396-0.003
	c0.681-0.003,1.368-0.008,2.069-0.013c-0.738,1.368-1.448,2.687-2.157,4.004c-0.046,0.017-0.092,0.035-0.135,0.052
	c-0.077-0.179-0.154-0.361-0.23-0.546c-0.105-0.28-0.243-0.308-0.516-0.143c-0.892,0.55-1.79,1.087-2.689,1.629
	c-0.021,0.017-0.05,0.035-0.075,0.047c-0.021,0.014-0.041,0.03-0.064,0.04c-0.809,0.485-1.621,0.977-2.436,1.467
	c-0.505,0.307-1.037,0.591-1.525,0.928C538.586,142.881,538.492,142.732,538.4,142.428z M533.857,147.854
	c0.282-0.515,0.568-1.036,0.846-1.56c0.051-0.093,0.103-0.184,0.151-0.272c0.053-0.099,0.106-0.202,0.157-0.292
	c0.274-0.514,0.554-1.029,0.83-1.54c0.219,0.12,0.283,0.343,0.383,0.527c0.131,0.249,0.253,0.26,0.484,0.114
	c2.011-1.218,4.02-2.423,6.031-3.636c0.098-0.06,0.195-0.118,0.294-0.177c0.071-0.042,0.142-0.087,0.214-0.129
	c0.078-0.046,0.151-0.096,0.229-0.138c0.422-0.255,0.422-0.255,0.579,0.229c0.385,1.185-0.134,2.573-1.257,3.259
	c-1.546,0.948-3.098,1.882-4.661,2.807c-0.29,0.172-0.379,0.304-0.149,0.588c0.106,0.137,0.227,0.289,0.255,0.521
	c-1.409,0.011-2.798,0.02-4.178,0.044C533.771,148.2,533.714,148.12,533.857,147.854z M594.578,281.696
	c0.562-0.327,1.115-0.66,1.665-1.006c0.151-0.087,0.235-0.073,0.306,0.083c0.042,0.098,0.093,0.196,0.135,0.288
	c0.078,0.163,0.158,0.327,0.235,0.489c0.322-0.432,0.539-0.796,0.722-1.17c0.622-1.29,1.504-2.456,1.876-3.901
	c-1.799,0.011-3.577,0.024-5.412,0.038c0.169,0.281,0.274,0.552,0.391,0.813c0.099,0.24,0.077,0.325-0.135,0.448
	c-1.431,0.851-2.856,1.716-4.288,2.575c-0.247,0.154-0.482,0.317-0.693,0.525c-0.87,0.843-1.161,1.921-0.829,3.136
	c0.048,0.185,0.11,0.367,0.182,0.551c0.019,0.045,0.036,0.087,0.058,0.136c0.09,0.201,0.074,0.301-0.02,0.385
	c-0.006,0.014-0.016,0.023-0.027,0.03c-0.037,0.031-0.079,0.051-0.132,0.083c-0.085,0.049-0.166,0.104-0.251,0.152
	c0.105,0.034,0.214,0.065,0.32,0.099c0.051-0.03,0.101-0.06,0.15-0.09c1.682-1.018,3.359-2.03,5.039-3.042
	c0.424-0.256,0.424-0.256,0.58,0.228c0.008,0.019,0.008,0.035,0.016,0.055c0.303,1.01-0.042,2.148-0.843,2.88
	c-0.126,0.116-0.273,0.229-0.43,0.325c-0.417,0.255-0.838,0.502-1.255,0.755c0.327,0.118,0.66,0.226,0.986,0.346
	c0.197-0.12,0.396-0.239,0.593-0.356c0.939-0.575,1.472-1.408,1.533-2.526c0.03-0.536-0.13-1.026-0.334-1.502
	c-0.069-0.165-0.146-0.328-0.218-0.491C594.43,281.87,594.41,281.793,594.578,281.696z M590.849,283.272
	c-0.51,0.312-1.039,0.591-1.522,0.934c-0.174,0.121-0.279,0.142-0.356,0.098c-0.072-0.041-0.123-0.144-0.167-0.286
	c-0.004-0.007-0.006-0.014-0.011-0.026c-0.079-0.223-0.108-0.453-0.124-0.686c-0.073-1.041,0.435-2.059,1.418-2.664
	c1.469-0.892,2.944-1.773,4.422-2.663c0.561-0.337,0.561-0.337,0.232-0.883c-0.058-0.086-0.145-0.157-0.214-0.241
	c0.022-0.034,0.05-0.065,0.073-0.094c1.497-0.014,2.992-0.026,4.548-0.04c-0.734,1.368-1.445,2.692-2.155,4.01
	c-0.043,0.019-0.091,0.034-0.135,0.052c-0.011-0.024-0.02-0.048-0.034-0.081c-0.063-0.153-0.129-0.31-0.191-0.464
	c-0.113-0.282-0.25-0.309-0.522-0.144C594.364,281.169,592.604,282.219,590.849,283.272z M652.946,386.152
	c-1.796-35.106-19.298-65.981-46.54-83.015c-4.381-2.739-9.007-5.13-13.867-7.112c-1.168-0.477-2.348-0.932-3.543-1.362
	c-7.149-2.574-14.757-4.299-22.75-5.063c-4.732-0.452-9.599-0.569-14.587-0.321c-6.629,0.193-13.242,1.125-19.415,2.711
	c-1.098,0.282-2.185,0.579-3.251,0.901c-23.155,6.572-44.051,18.089-58.725,29.925c-3.004,2.42-5.746,4.855-8.19,7.266
	l-0.636-11.818l-1.173-21.829l-51.998,2.768l-28.267,14.963l2.482,47.314l-47.801-58.25l-37.331,1.679l-8.391,0.379l-20.702,1.055
	l-31.601,1.615l0.014,0.247l-28.28,14.716l5.875,112.513c0.518,6.889-0.286,13.701-2.619,20.027
	c-2.348,4.059-6.607,4.126-10.36,3.157c-0.847-0.236-1.682-0.502-2.487-0.82c-14.795-5.341-20.096-19.456-20.938-33.85
	l-4.614-88.396l-0.617-11.821l-0.641-12.296l-0.3,0.015l-0.007-0.111l-2.804,0.142l-11.723,0.599l-28.229,1.442l-0.078,0.005
	l-7.034,0.359l-2.436,0.125l-28.265,14.964l5.631,110.08c1.248,25.504,8.187,46.983,21.282,62.279
	c9.181,10.724,21.387,18.414,36.793,22.304c24.246,6.306,53.015,3.61,75.436-8.826c10.568-5.498,22.364-10.965,31.319-16.646
	c2.972-1.886,5.624-3.8,7.817-5.744l0.553,10.584l0.864,16.529l52.4-2.977L351.691,502l-0.307-0.097l-2.461-51.902l50.518,62.691
	l42.985-1.913l25.683-13.362l2.89-1.504l-0.425-7.873c2.784,2.244,5.701,4.328,8.74,6.248
	c15.953,10.095,35.283,15.566,56.918,14.471c4.009-0.22,8.097-0.626,12.272-1.272c20.43-3.18,43.049-12.338,69.706-35.76
	c1.401-1.242,2.803-2.481,3.897-3.817C642.886,447.892,654.677,417.978,652.946,386.152z M239.688,363.402l-22.229,11.824
	l-0.68-10.642l22.23-11.821L239.688,363.402z M237.044,314.922l0.136-0.073l1.471,28.384l-0.051,0.026l-22.177,11.795l-1.472-28.383
	L237.044,314.922z M102.067,422.328l-1.335-25.738l9.63-5.123l12.599-6.701l1.472,28.382l-22.228,11.823L102.067,422.328z
	 M103.546,445.237l-0.68-10.64l22.23-11.823l0.225,1.417c0.354,3.11,0.406,6.129,0.751,9.239c0.004,0.029,0.005,0.054,0.008,0.083
	L103.546,445.237z M268.942,483.671c-2.363,2.444-4.948,4.699-7.769,6.755c-10.514,7.664-24.244,12.593-41.522,14.313l-4.458,0.275
	c-0.308-0.099-0.71,0.113-1.016,0.017c-0.305-0.097-0.708,0.111-1.014,0.016l-4.458,0.275c-51.13,0.015-74.979-32.064-77.296-81.23
	l-3.401-66.185l-1.91-37.144l-0.014-0.262l6.887-0.36l28.11-1.47l4.333-0.227l0.497,9.478l0.622,11.817l4.449,84.729
	c0.985,17.129,7.943,33.452,25.188,39.565c5.104,1.945,10.594,2.67,16.066,2.378c5.474-0.29,11.237-1.5,16.065-4.013
	c16.308-7.975,21.616-24.799,20.628-41.927l-5.567-106.026l11.287-0.589l19.85-1.037l8.192-0.428l5.55,105.009
	C289.735,445.515,283.795,468.318,268.942,483.671z M410.715,343.702l0.678,10.641l-0.162,0.084l-22.066,11.737l-0.679-10.641
	l22.173-11.792L410.715,343.702z M408.633,305.925l0.252-0.137l1.473,28.382l-0.207,0.109l-22.021,11.712l-1.474-28.379
	L408.633,305.925z M459.119,489.968l-28.37,1.32l-92.133-114.163l6.28,118.695l-39.635,1.957l-2.825-55.416l-6.675-130.893
	l1.945-0.096l33.939-1.699l89.312,109.236l-5.89-113.524l39.021-2.154l1.129,20.75l0.691,12.778l7.874,145.252l0.42,7.722
	L459.119,489.968z M572.693,485.991c-3.518,0.609-7.127,1.044-10.838,1.253c-39.598,1.995-71.03-20.709-85.759-53.703
	c-5.103-11.43-8.204-24.091-8.942-37.391c-0.629-13.302,1.126-26.203,4.968-38.088c10.817-33.457,38.265-58.814,76.31-62.055
	c1.169-0.1,2.346-0.183,3.534-0.239c18.159-0.916,34.611,3.333,48.525,11.382c1.388,0.803,2.744,1.652,4.08,2.53
	c24.603,16.147,40.367,44.661,42.097,77.182C649.05,434.871,619.802,477.837,572.693,485.991z M553.99,333.068
	c-32.439,1.54-48.014,29.587-46.413,59.691c1.603,30.104,19.672,55.984,52.417,54.544c32.536-1.846,48.013-29.586,46.314-59.386
	C604.4,357.719,586.428,331.531,553.99,333.068z M570.933,414.806c-3.373,9.974-10.357,17.345-19.484,19.092
	c-15.416,2.952-31.095-11.265-35.018-31.756c-3.923-20.489,5.395-39.491,20.813-42.443c5.3-1.016,10.636,0,15.509,2.602
	c9.3,4.965,16.937,15.709,19.509,29.153C573.864,399.816,573.258,407.931,570.933,414.806z M567.859,369.063l22.421-11.667
	l0.116-0.06c2.516,3.755,4.53,8.084,6.045,12.725c1.237,3.791,2.148,7.789,2.67,11.888l-22.132,11.516
	C575.623,384.964,572.643,376.288,567.859,369.063z M598.939,402.747l-21.328,11.098l0.097-0.305
	c0.354-3.252,0.497-6.907,0.337-10.658l21.825-11.613C599.935,395.324,599.486,398.884,598.939,402.747z"/>
<path fill="#FFFFFF" d="M431.209,183.041l-1.959,17.809l12.638,1.391l0.335-3.03l-9.014-0.992l1.627-14.779L431.209,183.041z
	 M379.88,224.933c-0.12-0.261-0.23-0.524-0.339-0.792c-0.156-0.392-0.3-0.792-0.434-1.194c-0.071-0.205-0.136-0.41-0.202-0.624
	c-0.116-0.388-0.228-0.78-0.327-1.178c-0.091-0.354-0.177-0.711-0.254-1.07c-0.18-0.852-0.32-1.713-0.432-2.59
	c-0.97-7.747,0.797-15.058,3.901-22.075c5.437-12.293,13.81-22.298,24.301-30.598c12.298-9.947,25.982-16.775,41.931-18.21
	c7.396-0.667,14.618,0.31,21.129,4.313c0.577,0.354,1.14,0.729,1.684,1.118c1.632,1.184,3.094,2.564,4.249,4.265
	c0.163,0.199,0.322,0.4,0.474,0.597c0.048,0.059,0.091,0.122,0.137,0.183c0.109,0.143,0.212,0.288,0.315,0.43
	c0.05,0.069,0.103,0.141,0.15,0.209c0.101,0.142,0.196,0.288,0.296,0.43c0.04,0.065,0.083,0.131,0.123,0.189
	c0.134,0.208,0.268,0.414,0.391,0.622c0,0,0.005,0.001,0.005,0.005c0.124,0.206,0.246,0.416,0.363,0.627
	c0.04,0.068,0.074,0.138,0.113,0.205c0.077,0.149,0.159,0.293,0.233,0.441c0.039,0.076,0.079,0.157,0.118,0.233
	c0.071,0.148,0.145,0.296,0.217,0.442c0.029,0.073,0.067,0.145,0.099,0.217c0.096,0.205,0.191,0.414,0.279,0.625
	c0.004,0.006,0.01,0.017,0.013,0.025c-0.001,0.008,0.003,0.012,0.008,0.017c0.102,0.251,0.204,0.504,0.302,0.764
	c0.024,0.062,0.049,0.13,0.071,0.19c0.193,0.526,0.37,1.061,0.528,1.599c0.015,0.061,0.033,0.125,0.051,0.188
	c0.077,0.269,0.152,0.539,0.218,0.815c0.478,1.954,0.718,3.991,0.769,6.084c0.253,10.529-3.56,19.821-9.031,28.543
	c-5.098,8.133-11.549,15.078-19.002,21.111c-0.222,0.179-0.48,0.313-0.721,0.468c-2.65,2.313-5.495,4.343-8.461,6.188
	c2.379,0.308,4.741,0.648,7.094,1.01c10.874-7.704,20.056-17.42,27.449-29.213c1.244-1.986,2.32-4.073,3.472-6.113
	c0.066,0.017,0.132,0.026,0.197,0.037c-1.493,13.563-2.99,27.123-4.483,40.684c2.892,0.729,5.763,1.491,8.602,2.304
	c1.345-12.232,2.68-24.464,4.025-36.696c3.055-27.762,6.103-55.525,9.193-83.284c0.109-0.988-0.063-1.201-1.053-1.31
	c-38.718-4.229-77.429-8.489-116.141-12.78c-0.987-0.109-1.203,0.062-1.312,1.049c-4.534,41.416-9.104,82.826-13.672,124.236
	c4.69-0.583,9.362-1.057,14.009-1.422C380.295,225.817,380.079,225.379,379.88,224.933z M377.555,185.953
	c2.372-21.561,4.796-43.112,7.071-64.684c0.398-3.805,3.905-7.37,8.502-6.852c29.326,3.295,58.664,6.524,88.011,9.676
	c3.521,0.38,7.37,3.289,6.9,8.221c-0.783,8.223-1.765,16.428-2.663,24.636c-0.035,0.32-0.069,0.636-0.143,1.291
	c-0.842-1.571-1.469-2.881-2.225-4.125c-4.023-6.621-10.037-10.521-17.411-12.386c-10.219-2.587-20.277-1.315-30.169,1.738
	c-14.246,4.406-26.606,12.087-37.578,22.082c-8.541,7.775-15.622,16.698-21.024,27.025L377.555,185.953z M418.658,181.512
	l-4.137,12.238l-1.767-12.887l-4.312-0.475l-4.638,11.969l-1.349-12.628l-3.711-0.408l2.309,18.425l3.931,0.433l5.044-13.033
	l2.099,13.819l3.844,0.423l5.57-15.365l0.77-2.108l-2.707-0.298L418.658,181.512z M454.532,203.243
	c1.107-0.223,2.009-0.607,2.704-1.15c0.922-0.717,1.684-1.705,2.272-2.96c0.485-1.032,0.81-2.28,0.973-3.76
	c0.185-1.681,0.145-3.12-0.121-4.308c-0.265-1.194-0.729-2.224-1.392-3.1c-0.67-0.872-1.51-1.525-2.53-1.952
	c-0.757-0.312-1.883-0.551-3.376-0.715l-6.626-0.729l-1.977,17.954l6.818,0.75C452.622,203.421,453.702,203.411,454.532,203.243z
	 M451.123,200.19l-2.704-0.297l1.309-11.889l1.63,0.179c1.476,0.163,2.462,0.328,2.954,0.497c0.662,0.226,1.188,0.565,1.585,1.03
	c0.397,0.466,0.677,1.085,0.839,1.854c0.165,0.769,0.169,1.85,0.016,3.235c-0.152,1.39-0.395,2.471-0.729,3.249
	c-0.333,0.78-0.717,1.321-1.141,1.629c-0.428,0.308-0.94,0.505-1.543,0.586C452.875,200.326,452.138,200.302,451.123,200.19z
	 M401.956,123.153c0.145-2.026-0.996-3.443-3.011-3.701c-2.456-0.311-4.528,0.596-6.396,2.098c-0.241,0.208-0.484,0.417-0.728,0.625
	c-1.731,1.286-2.815,3-3.274,5.091c-0.463,2.111,0.674,3.872,2.666,4.222C395.604,132.264,401.642,127.573,401.956,123.153z
	 M397.744,128.721c-1.543,1.483-3.4,2.203-5.53,2.121c-0.897-0.035-1.803-0.239-2.311-1.154c-1.047-1.115-0.758-2.365-0.337-3.605
	c0.48-1.437,1.519-2.51,2.499-3.614c0.169-0.07,0.335-0.14,0.502-0.205c0.096-0.146,0.193-0.293,0.289-0.439
	c1.493-0.835,2.977-1.708,4.754-1.788c0.283-0.011,0.558-0.006,0.827,0.02c0.807,0.089,1.518,0.399,2.041,1.172
	c0.064,0.068,0.125,0.134,0.178,0.205c0.017,0.025,0.034,0.046,0.052,0.069c0.036,0.047,0.07,0.096,0.102,0.143
	c0.017,0.026,0.027,0.055,0.047,0.082c0.026,0.046,0.048,0.089,0.072,0.135c0.019,0.031,0.027,0.059,0.042,0.087
	c0.019,0.043,0.037,0.091,0.057,0.135c0.01,0.029,0.022,0.06,0.031,0.087c0.015,0.047,0.029,0.091,0.04,0.14
	c0.009,0.03,0.018,0.054,0.023,0.083c0.015,0.052,0.019,0.106,0.03,0.157c0.006,0.021,0.004,0.046,0.012,0.067
	c0.014,0.076,0.021,0.154,0.022,0.231c0.003,0.079,0.003,0.159,0.004,0.242c-0.002,0.072-0.01,0.144-0.013,0.215
	c-0.008,0.075-0.017,0.146-0.028,0.217c-0.009,0.076-0.021,0.144-0.037,0.22c-0.029,0.144-0.058,0.29-0.099,0.432
	c-0.041,0.14-0.082,0.282-0.13,0.422C400.321,126.298,399.318,127.745,397.744,128.721z M426.242,195.509l0.545-4.961l0.885-8.044
	l-3.625-0.398l-0.488,4.43l-0.427,3.892l-1.061,9.632l3.626,0.399L426.242,195.509z M604.571,309.68
	c-1.336-0.877-2.692-1.727-4.08-2.53c-13.914-8.049-30.366-12.298-48.525-11.382c-1.188,0.057-2.365,0.139-3.534,0.239
	c-38.045,3.241-65.492,28.598-76.31,62.055c-3.842,11.885-5.597,24.787-4.968,38.088c0.738,13.3,3.84,25.961,8.942,37.391
	c14.729,32.994,46.161,55.698,85.759,53.703c3.711-0.209,7.32-0.644,10.838-1.253c47.108-8.154,76.356-51.12,73.975-99.13
	C644.938,354.34,629.174,325.827,604.571,309.68z M578.499,480.096c-5.364,1.366-10.991,2.265-16.88,2.595
	c-42.571,2.146-75.233-25.682-86.291-63.74c-2.133-7.341-3.468-15.06-3.908-23.021c-0.377-7.931,0.144-15.71,1.476-23.196
	c2.083-11.726,6.183-22.726,12.05-32.449c0.071-0.119,0.148-0.232,0.221-0.351c0.587-0.962,1.181-1.918,1.802-2.856
	c13.968-21.036,36.612-35.375,65.234-36.757c5.622-0.284,11.069-0.041,16.322,0.67c6.069,0.823,11.87,2.285,17.367,4.308
	c8.394,3.089,16.078,7.486,22.885,12.973c14.243,11.48,24.684,27.672,29.941,46.35c0.144,0.517,0.282,1.037,0.42,1.557
	c0.017,0.07,0.036,0.138,0.053,0.206c1.738,6.631,2.829,13.564,3.21,20.697C644.555,430.536,619.502,469.648,578.499,480.096z
	 M282.689,312.393l-8.192,0.428l-19.85,1.037l-11.287,0.589l5.567,106.026c0.988,17.128-4.32,33.952-20.628,41.927
	c-4.828,2.513-10.591,3.723-16.065,4.013c-5.473,0.292-10.962-0.433-16.066-2.378c-17.244-6.113-24.202-22.437-25.188-39.565
	l-4.449-84.729l-0.622-11.817l-0.497-9.478l-4.333,0.227l-28.11,1.47l-6.887,0.36l0.014,0.262l1.91,37.144l3.401,66.185
	c2.317,49.166,26.166,81.245,77.296,81.23l4.458-0.275c0.307,0.096,0.709-0.112,1.014-0.016c0.306,0.097,0.708-0.115,1.016-0.017
	l4.458-0.275c17.278-1.721,31.008-6.649,41.522-14.313c2.821-2.056,5.406-4.311,7.769-6.755
	c14.853-15.353,20.793-38.156,19.297-66.27L282.689,312.393z M268.62,477.528c-2.27,2.736-4.834,5.29-7.721,7.631
	c-10.569,8.573-25.467,14.302-46.08,15.702c-0.306-0.096-0.708,0.112-1.015,0.016c-0.304-0.095-0.708,0.113-1.014,0.019
	c-57.18,2.138-75.142-35.815-77.326-76.868l-3.371-72.061l-1.091-23.315l-0.186-3.968l4.831-0.239l20.599-1.019l4.98-0.247
	l0.387,7.419l0.616,11.819l4.289,82.328c1.859,33.548,23.79,47.193,45.989,46.126c22.298-1.375,43.044-17.028,40.877-50.674
	l-5.291-101.565l4.315-0.214l12.519-0.621l13.575-0.673l5.274,100.554C284.979,439.835,281.726,461.722,268.62,477.528z
	 M661.157,385.714c-1.507-30.408-13.926-58.209-34.118-77.359c-5.599-5.362-11.779-10.05-18.459-13.985
	c-2.602-1.533-5.277-2.954-8.029-4.249c-2.485-1.169-5.025-2.248-7.627-3.214c-0.326-0.121-0.659-0.229-0.986-0.346
	c-1.077-0.387-2.162-0.759-3.258-1.111c-0.106-0.034-0.215-0.065-0.32-0.099c-4.406-1.398-8.955-2.519-13.649-3.316
	c-7.56-1.286-15.475-1.773-23.698-1.365c-4.056,0.064-8.305,0.742-13.473,1.129c-0.51,0.1-1.02,0.202-1.529,0.303
	c-3.431,0.68-6.842,1.397-10.094,2.422c-3.506,1.017-6.961,2.133-10.356,3.33c-10.585,3.731-20.566,8.281-29.547,13.343
	c-5.902,3.296-11.375,6.856-16.329,10.512l-0.785-14.903c0.095-0.305-0.209-0.402-0.112-0.709c-0.18-4.764-4.092-8.353-8.858-8.173
	l-51.997,2.765c-1.015,0.017-2.124,0.337-3.234,0.66l-28.267,14.965c-2.817,1.466-4.797,4.541-4.538,7.985l1.164,21.896
	l-31.563-38.549c-1.659-2.205-4.314-3.38-7.052-3.233l-45.413,2.153c-1.146-0.069-2.137,0.178-3.165,0.651l-49.64,2.535
	c-1.721,0.13-3.235,0.66-4.538,1.594l-21.201,11.032l-5.762,2.998c-1.573,0.584-2.843,1.627-3.762,2.931
	c-1.082,1.539-1.667,3.445-1.581,5.474l5.876,112.514c0.257,3.445,0.001,6.39-0.255,9.336c-0.274,1.933-0.547,3.866-1.126,5.697
	l-3.059-0.965c-4.797-1.849-8.196-4.939-10.385-8.655c-3.127-5.023-4.447-11.493-4.755-17.982l-4.85-92.884l-0.617-11.82
	l-0.408-7.809c-0.098-2.61-1.321-4.86-3.184-6.339c-1.541-1.221-3.517-1.917-5.672-1.835l-2.753,0.141l-49.55,2.528
	c-0.547,0.011-1.124,0.115-1.727,0.301c-0.515,0.16-1.049,0.376-1.605,0.667l-27.767,14.448c-3.429,1.273-5.503,4.655-5.343,8.406
	l5.633,110.081c1.667,27.769,9.352,51.385,24.536,68.286c6.675,7.535,14.678,13.549,24.072,18.022
	c6.316,3.006,13.256,5.325,20.869,6.915c20.25,4.038,41.131,2.89,60.207-3.202c5.553-1.61,10.995-3.93,15.919-6.751l0.403-0.207
	c2.415-1.259,5.538-2.627,8.354-4.093c6.88-3.442,13.754-6.888,19.904-10.507l0.605,11.597c0.178,4.765,4.092,8.354,8.857,8.175
	l52.303-2.669c1.015-0.018,2.125-0.341,3.333-0.968l28.571-14.866c1.918-0.742,3.508-2.594,4.184-4.733
	c0.483-1.53,0.354-3.253,0.128-4.67l-1.407-24.326l34.06,42.364c1.658,2.205,4.315,3.379,7.052,3.233l42.677-2.007
	c1.321,0.079,2.432-0.243,3.639-0.87l28.572-14.868c0.492-0.202,0.948-0.47,1.378-0.771c16.981,10.175,37.321,15.563,59.912,14.39
	c0.032-0.003,0.064-0.006,0.097-0.006c12.641-0.722,25.859-3.269,40.438-9.069c14.311-5.912,29.778-15.495,46.485-30.067
	c0.498-0.516,1.398-1.242,2.397-2.271c1.303-0.935,1.897-1.755,2.397-2.271c11.491-10.838,20.102-24.267,25.843-39.271
	C659.267,419.426,662.144,402.844,661.157,385.714z M622.108,467.909c-1.095,1.336-2.496,2.575-3.897,3.817
	c-26.657,23.422-49.276,32.58-69.706,35.76c-4.176,0.646-8.264,1.053-12.272,1.272c-21.635,1.096-40.965-4.376-56.918-14.471
	c-3.039-1.92-5.956-4.004-8.74-6.248l0.425,7.873l-2.89,1.504l-25.683,13.362l-42.985,1.913l-50.518-62.691l2.461,51.902
	l0.307,0.097l-28.475,14.561l-52.4,2.977l-0.864-16.529l-0.553-10.584c-2.194,1.944-4.845,3.858-7.817,5.744
	c-8.956,5.681-20.751,11.147-31.319,16.646c-22.421,12.437-51.19,15.132-75.436,8.826c-15.407-3.89-27.613-11.58-36.793-22.304
	c-13.095-15.296-20.034-36.775-21.282-62.279l-5.631-110.08l28.265-14.964l2.436-0.125l7.034-0.359l0.078-0.005l28.229-1.442
	l11.723-0.599l2.804-0.142l0.007,0.111l0.3-0.015l0.641,12.296l0.617,11.821l4.614,88.396c0.842,14.394,6.143,28.509,20.938,33.85
	c0.805,0.318,1.64,0.584,2.487,0.82c3.753,0.969,8.012,0.901,10.36-3.157c2.333-6.326,3.137-13.139,2.619-20.027l-5.875-112.513
	l28.28-14.716l-0.014-0.247l31.601-1.615l20.702-1.055l8.391-0.379l37.331-1.679l47.801,58.25l-2.482-47.314l28.267-14.963
	l51.998-2.768l1.173,21.829l0.636,11.818c2.444-2.41,5.187-4.845,8.19-7.266c14.674-11.836,35.569-23.353,58.725-29.925
	c1.066-0.323,2.153-0.619,3.251-0.901c6.173-1.586,12.786-2.518,19.415-2.711c4.988-0.249,9.854-0.131,14.587,0.321
	c7.993,0.763,15.601,2.489,22.75,5.063c1.195,0.43,2.375,0.885,3.543,1.362c4.86,1.982,9.486,4.374,13.867,7.112
	c27.242,17.033,44.744,47.908,46.54,83.015C654.677,417.978,642.886,447.892,622.108,467.909z M455.908,336.76l-0.691-12.778
	l-1.129-20.75l-39.021,2.154l5.89,113.524l-89.312-109.236l-33.939,1.699l-1.945,0.096l6.675,130.893l2.825,55.416l39.635-1.957
	l-6.28-118.695l92.133,114.163l28.37-1.32l5.083-0.234l-0.42-7.722L455.908,336.76z M454.721,485.645l-21.816,0.942l-99.378-123.176
	l6.636,128.224l-30.41,1.505l-9.356-177.18l29.09-1.584l96.658,117.944l-0.029-0.521l-2.162-41.829l-4.154-80.401l30.105-1.604
	l1.067,20.483l0.714,13.672l7.018,134.553l0.457,8.778L454.721,485.645z M553.714,328.61c-33.853,1.764-52.667,30.472-50.806,64.024
	c1.763,33.854,23.297,60.489,57.151,58.727c33.854-1.764,52.266-30.264,50.499-64.119
	C608.796,353.386,587.569,326.845,553.714,328.61z M559.994,447.304c-32.745,1.44-50.814-24.44-52.417-54.544
	c-1.601-30.104,13.974-58.152,46.413-59.691c32.438-1.537,50.41,24.651,52.318,54.85
	C608.007,417.718,592.53,445.458,559.994,447.304z"/>
<path fill="#F7DA28" d="M237.373,237.055c0.158,0.333,0.317,0.664,0.482,0.988c0.187,0.366,0.385,0.723,0.582,1.076
	c0.109,0.193,0.224,0.379,0.336,0.563c0.222,0.361,0.446,0.721,0.689,1.068c1.298,1.884,2.885,3.562,4.851,4.966
	c12.049-15.152,24.101-30.309,36.155-45.46c0.119-0.149,0.278-0.258,0.418-0.392c-0.013-0.082-0.033-0.167-0.044-0.255
	c-0.466-0.334-0.95-0.649-1.4-1.008c-9.068-7.192-18.129-14.384-27.195-21.581c-8.401,10.414-14.356,22.021-16.942,35.212
	c-1.476,7.529-1.584,15.05,1.075,22.391C236.682,235.455,237.009,236.264,237.373,237.055z M395.117,125.497
	c-0.85-1.075-1.698-2.157-2.55-3.234c-0.167,0.064-0.333,0.135-0.502,0.205c-0.98,1.104-2.019,2.177-2.499,3.614
	c-0.421,1.241-0.71,2.491,0.337,3.605C391.641,128.292,393.381,126.896,395.117,125.497z M378.324,220.074
	c0.077,0.359,0.163,0.717,0.254,1.07c0.1,0.397,0.211,0.79,0.327,1.178c0.066,0.213,0.131,0.419,0.202,0.624
	c0.134,0.402,0.277,0.802,0.434,1.194c0.108,0.268,0.219,0.531,0.339,0.792c0.199,0.446,0.415,0.885,0.646,1.317
	c2.696-0.212,5.387-0.396,8.066-0.535c11.208-8.992,22.415-17.985,33.624-26.977l0.916-8.311l0.427-3.892
	c-0.67-0.838-1.344-1.675-2.017-2.513l-5.57,15.365l-3.844-0.423l-2.099-13.819l-5.044,13.033l-3.931-0.433l-2.309-18.425
	l3.711,0.408l1.349,12.628l4.638-11.969l4.312,0.475l1.767,12.887l4.137-12.238l0.946,0.104c-4.502-5.604-9.006-11.204-13.51-16.805
	c-10.491,8.3-18.864,18.305-24.301,30.598c-3.104,7.017-4.871,14.328-3.901,22.075C378.004,218.361,378.145,219.222,378.324,220.074
	z M642.4,387.08c-0.381-7.133-1.472-14.066-3.21-20.697c-0.017-0.068-0.036-0.136-0.053-0.206c-0.138-0.52-0.276-1.04-0.42-1.557
	c-5.258-18.678-15.698-34.87-29.941-46.35c-6.807-5.487-14.491-9.884-22.885-12.973c-5.497-2.023-11.298-3.485-17.367-4.308
	c-5.253-0.711-10.7-0.954-16.322-0.67c-28.622,1.383-51.267,15.721-65.234,36.757c-0.621,0.938-1.215,1.894-1.802,2.856
	c-0.072,0.119-0.149,0.232-0.221,0.351c-5.867,9.723-9.967,20.724-12.05,32.449c-1.332,7.486-1.853,15.266-1.476,23.196
	c0.44,7.962,1.775,15.681,3.908,23.021c11.058,38.059,43.72,65.887,86.291,63.74c5.889-0.33,11.516-1.229,16.88-2.595
	C619.502,469.648,644.555,430.536,642.4,387.08z M560.06,451.36c-33.854,1.763-55.389-24.873-57.151-58.727
	c-1.861-33.552,16.953-62.26,50.806-64.024c33.855-1.765,55.082,24.776,56.845,58.631
	C612.325,421.097,593.914,449.597,560.06,451.36z M428.981,193.421c0.004-0.084,0.005-0.171,0.012-0.259
	c-0.383-0.43-0.78-0.844-1.141-1.292c-0.354-0.442-0.71-0.881-1.065-1.322l-0.545,4.961c0.749-0.601,1.495-1.199,2.243-1.799
	C428.63,193.59,428.814,193.52,428.981,193.421z M228.69,146.345c1.39-1.747,2.775-3.49,4.161-5.24
	c-1.068-0.86-2.136-1.728-3.199-2.591c-0.149,0.101-0.297,0.206-0.45,0.312c-0.708,1.293-1.487,2.57-1.64,4.077
	C227.431,144.205,227.424,145.488,228.69,146.345z M278.505,317.124l-13.575,0.673l-12.519,0.621l-4.315,0.214l5.291,101.565
	c2.167,33.646-18.58,49.299-40.877,50.674c-22.199,1.067-44.13-12.578-45.989-46.126l-4.289-82.328l-0.616-11.819l-0.387-7.419
	l-4.98,0.247l-20.599,1.019l-4.831,0.239l0.186,3.968l1.091,23.315l3.371,72.061c2.184,41.053,20.146,79.006,77.326,76.868
	c0.306,0.095,0.71-0.113,1.014-0.019c0.307,0.097,0.709-0.111,1.015-0.016c20.613-1.4,35.51-7.129,46.08-15.702
	c2.887-2.341,5.452-4.895,7.721-7.631c13.105-15.807,16.359-37.693,15.159-59.851L278.505,317.124z M451.687,342.121l-0.714-13.672
	l-1.067-20.483l-30.105,1.604l4.154,80.401l2.162,41.829l0.029,0.521l-96.658-117.944l-29.09,1.584l9.356,177.18l30.41-1.505
	l-6.636-128.224l99.378,123.176l21.816-0.942l4.44-0.192l-0.457-8.778L451.687,342.121z M153.486,270.678
	c0.174,0.58,0.319,1.173,0.006,1.76l-0.003-0.004c-0.012,0.136-0.043,0.253-0.087,0.365c-0.206,0.524-0.694,0.824-1.142,1.156
	c0.031,0.102,0.064,0.208,0.098,0.312c0.958,3.125,1.91,6.249,2.877,9.364c0.438,1.408,0.971,1.62,2.224,0.845
	c4.663-2.891,9.304-5.809,13.976-8.682c1.279-0.789,1.37-1.852,0.981-3.123c-1.086-3.542-2.163-7.082-3.234-10.622
	c-0.074-0.248-0.104-0.508-0.151-0.762c-0.003-0.016-0.006-0.03-0.011-0.046c-0.197-0.416-0.39-0.83-0.634-1.332
	c-2.869,1.787-5.789,3.493-8.588,5.376c-3.274,2.204-3.367,1.131-4.104-1.746c-0.005-0.02-0.011-0.036-0.018-0.055
	c-1.046-3.328-2.096-6.651-3.14-9.974c-0.079,0.021-0.13,0.029-0.167,0.038c-0.023,0.007-0.047,0.01-0.06,0.019
	c-1.267,0.682-2.07,1.116-2.523,1.576c-0.802,0.805-0.528,1.684,0.221,4.114C151.179,263.059,152.332,266.872,153.486,270.678z"/>
<path fill="#59595B" d="M596.441,370.061c-1.515-4.641-3.529-8.97-6.045-12.725l-0.116,0.06l-22.421,11.667
	c4.783,7.226,7.764,15.901,9.12,24.401l22.132-11.516C598.59,377.85,597.679,373.852,596.441,370.061z M578.045,402.882
	c0.16,3.751,0.018,7.406-0.337,10.658l-0.097,0.305l21.328-11.098c0.547-3.863,0.995-7.423,0.931-11.479L578.045,402.882z
	 M125.322,424.191l-0.225-1.417l-22.23,11.823l0.68,10.64l22.535-11.724c-0.002-0.029-0.003-0.054-0.008-0.083
	C125.728,430.32,125.676,427.302,125.322,424.191z M216.778,364.585l0.68,10.642l22.229-11.824l-0.679-10.639L216.778,364.585z
	 M410.357,334.17l-1.473-28.382l-0.252,0.137l-21.978,11.687l1.474,28.379l22.021-11.712L410.357,334.17z M410.658,343.731
	l-22.173,11.792l0.679,10.641l22.066-11.737l0.162-0.084l-0.678-10.641L410.658,343.731z M122.961,384.766l-12.599,6.701
	l-9.63,5.123l1.335,25.738l0.139,2.643l22.228-11.823L122.961,384.766z M238.651,343.233l-1.471-28.384l-0.136,0.073l-22.093,11.75
	l1.472,28.383L238.6,343.26L238.651,343.233z"/>
<path fill="#EC2227" d="M143.34,276.817c2.368-1.475,4.73-2.964,7.112-4.415c1.011-0.622,1.407-1.48,1.072-2.59
	c-2.576-8.492-5.166-16.973-7.78-25.446c-0.366-1.2-0.982-1.383-2.104-0.69c-4.667,2.882-9.317,5.795-13.977,8.688
	c-1.093,0.681-1.45,1.61-1.078,2.848c2.54,8.354,5.055,16.711,7.606,25.063c0.423,1.375,1.046,1.574,2.282,0.815
	C138.766,279.677,141.049,278.243,143.34,276.817z M232.866,141.108c0.006,0,0.015-0.002,0.026-0.003l0.017,0.002
	c0.024-0.003,0.047-0.001,0.047-0.001c1.395-1.787,2.785-3.568,4.179-5.35c-0.681-0.638-1.444-0.784-2.251-0.692
	c-0.263,0.034-0.537,0.09-0.812,0.165c-1.713,0.471-2.968,1.649-4.24,2.794c-0.06,0.163-0.118,0.328-0.179,0.491
	c1.063,0.863,2.131,1.731,3.199,2.591L232.866,141.108z M476.048,502.692c-0.43,0.301-0.886,0.568-1.378,0.771l-28.572,14.868
	c-1.207,0.627-2.317,0.949-3.639,0.87l-42.677,2.007c-2.736,0.146-5.394-1.028-7.052-3.233l-34.06-42.364l1.407,24.326
	c0.226,1.417,0.355,3.14-0.128,4.67c-0.676,2.14-2.266,3.991-4.184,4.733l-28.571,14.866c-1.207,0.627-2.318,0.95-3.333,0.968
	l-52.303,2.669c-4.765,0.179-8.68-3.41-8.857-8.175l-0.605-11.597c-6.15,3.619-13.024,7.064-19.904,10.507
	c-2.816,1.466-5.94,2.834-8.354,4.093l-0.403,0.207c-4.924,2.821-10.366,5.141-15.919,6.751c-19.076,6.092-39.956,7.24-60.207,3.202
	c-7.613-1.59-14.552-3.909-20.869-6.915c47.036,51.405,134.234,75.576,238.407,59.403c60.332-9.343,116.826-35.563,161.209-68.243
	c-0.032,0-0.064,0.003-0.097,0.006C513.369,518.256,493.029,512.867,476.048,502.692z M552.753,362.3
	c-4.873-2.602-10.209-3.617-15.509-2.602c-15.419,2.952-24.736,21.954-20.813,42.443c3.923,20.491,19.602,34.708,35.018,31.756
	c9.127-1.747,16.111-9.118,19.484-19.092c2.325-6.875,2.932-14.989,1.329-23.353C569.689,378.009,562.053,367.265,552.753,362.3z
	 M422.312,181.915l-0.77,2.108c0.673,0.838,1.347,1.674,2.017,2.513l0.488-4.43l3.625,0.398l-0.885,8.044
	c0.355,0.441,0.711,0.88,1.065,1.322c0.36,0.448,0.758,0.863,1.141,1.292c0.4-0.295,0.808-0.583,1.2-0.891l1.016-9.231l3.627,0.399
	l-0.617,5.61c13.622-10.913,27.245-21.835,40.868-32.752c-1.155-1.701-2.617-3.081-4.249-4.265c-0.544-0.39-1.106-0.764-1.684-1.118
	c-6.511-4.002-13.732-4.98-21.129-4.313c-15.948,1.436-29.633,8.264-41.931,18.21c4.504,5.601,9.008,11.201,13.51,16.805
	L422.312,181.915z M280.842,199.611c0.342-0.398,0.702-0.786,1.026-1.2c11.931-14.978,23.854-29.958,35.781-44.94
	c-1.503-1.403-3.235-2.426-5.087-3.22c-0.618-0.26-1.25-0.5-1.891-0.72c-7.229-2.464-14.493-1.821-21.559,0.464
	c-15.238,4.925-27.073,14.608-36.866,27.027c9.066,7.197,18.127,14.389,27.195,21.581
	C279.892,198.961,280.376,199.277,280.842,199.611z M395.129,125.502c0.007,0.001,0.02,0.002,0.031,0.003l0.015,0.006l0.044,0.01
	c1.757-1.435,3.51-2.864,5.26-4.294c-0.523-0.772-1.234-1.083-2.041-1.172c-0.27-0.026-0.544-0.031-0.827-0.02
	c-1.777,0.081-3.261,0.953-4.754,1.788c-0.096,0.146-0.193,0.293-0.289,0.439c0.852,1.077,1.7,2.159,2.55,3.234L395.129,125.502z
	 M626.356,150.589c-28.31-7.021-56.619-14.042-84.935-21.064c-1.467-0.364-2.801-0.463-3.993-0.317
	c-0.688,0.083-1.334,0.252-1.929,0.503c-2.166,0.919-3.691,2.938-4.451,6.003c-5.728,23.081-11.445,46.147-17.168,69.222
	c0.071,0.052,0.148,0.103,0.221,0.147c0.527-0.721,1.04-1.451,1.59-2.164c16.318-21.208,37.652-34.275,63.976-39
	c10.399-1.869,20.774-1.523,30.646,2.84c7.738,3.423,13.207,9.008,15.747,17.238c0.107,0.343-0.027,0.902,0.581,1.03
	c1.996-8.047,3.985-16.069,5.975-24.09C633.943,155.584,631.729,151.921,626.356,150.589z M547.243,138.813
	c-0.179,0.375-0.398,0.738-0.72,1.172c-0.124-0.257-0.257-0.512-0.375-0.773c-0.072-0.157-0.147-0.175-0.3-0.081
	c-0.55,0.34-1.105,0.678-1.669,0.999c-0.165,0.097-0.143,0.174-0.082,0.333c0.289,0.635,0.596,1.27,0.558,2
	c-0.06,1.113-0.592,1.949-1.538,2.519c-1.466,0.896-2.938,1.79-4.42,2.663c-0.258,0.149-0.307,0.265-0.117,0.497
	c0.165,0.195,0.04,0.495,0.231,0.721c-1.647,0.012-3.298,0.028-4.979,0.037c0.071-0.154,0.125-0.279,0.199-0.449
	c-0.262-0.004-0.485-0.01-0.764-0.009c0.402-0.75,0.803-1.487,1.201-2.228c0.052-0.093,0.095-0.182,0.147-0.274
	c0.059-0.101,0.111-0.21,0.171-0.312c0.359-0.674,0.729-1.354,1.107-2.055c0.168,0.323,0.314,0.564,0.423,0.819
	c0.113,0.27,0.248,0.25,0.474,0.104c0.46-0.305,0.94-0.587,1.424-0.858c0.223-0.126,0.307-0.212,0.179-0.504
	c-0.145-0.331-0.245-0.647-0.305-0.956c-0.005-0.039-0.018-0.083-0.023-0.122c-0.009-0.04-0.009-0.074-0.013-0.109
	c-0.024-0.172-0.031-0.34-0.027-0.505c0.002-0.175,0.019-0.355,0.056-0.522c0.113-0.598,0.419-1.136,0.902-1.608
	c0.212-0.201,0.447-0.372,0.695-0.526c1.428-0.858,2.858-1.722,4.286-2.573c0.215-0.125,0.236-0.208,0.135-0.449
	c-0.104-0.236-0.202-0.483-0.35-0.739c-0.017-0.026-0.025-0.047-0.043-0.073c0.098,0.003,0.199,0,0.301-0.005
	c0.016,0.004,0.027,0.004,0.044,0.002c0.094,0,0.188,0.002,0.281-0.003c0.275-0.003,0.565-0.004,0.847-0.007
	c1.322-0.009,2.626-0.019,3.941-0.03C548.75,136.358,547.87,137.527,547.243,138.813z M543.477,140.75
	c-0.077,0.042-0.15,0.091-0.229,0.138c-0.072,0.042-0.143,0.088-0.214,0.129c-0.099,0.06-0.196,0.117-0.294,0.177
	c-2.012,1.212-4.021,2.417-6.031,3.636c-0.231,0.146-0.354,0.135-0.484-0.114c-0.1-0.184-0.164-0.407-0.383-0.527
	c-0.276,0.511-0.556,1.025-0.83,1.54c-0.051,0.09-0.104,0.193-0.157,0.292c-0.049,0.088-0.101,0.18-0.151,0.272
	c-0.277,0.524-0.563,1.045-0.846,1.56c-0.144,0.266-0.086,0.346,0.208,0.347c1.38-0.025,2.769-0.034,4.178-0.044
	c-0.028-0.232-0.148-0.384-0.255-0.521c-0.229-0.285-0.141-0.417,0.149-0.588c1.563-0.925,3.115-1.859,4.661-2.807
	c1.123-0.686,1.642-2.074,1.257-3.259C543.898,140.496,543.898,140.496,543.477,140.75z M547.679,223.217
	c-0.355-0.687-0.617-1.51-1.411-1.951c-2.455,4.544-4.851,9.022-7.291,13.479c-0.521,0.962-0.316,1.272,0.758,1.256
	c5.075-0.073,10.15-0.107,15.37-0.155c-0.13-0.849-0.562-1.405-0.962-1.914c-0.842-1.051-0.515-1.535,0.563-2.17
	c5.73-3.384,11.44-6.822,17.122-10.304c4.116-2.516,6.039-7.618,4.615-11.981c-0.582-1.773-0.582-1.773-2.132-0.833
	c-8.292,4.992-16.589,9.971-24.857,14.998C548.587,224.166,548.16,224.132,547.679,223.217z M593.622,285.479
	c0.801-0.732,1.146-1.871,0.843-2.88c-0.008-0.02-0.008-0.036-0.016-0.055c-0.156-0.483-0.156-0.483-0.58-0.228
	c-1.68,1.012-3.357,2.024-5.039,3.042c-0.05,0.03-0.1,0.06-0.15,0.09c1.096,0.352,2.181,0.724,3.258,1.111
	c0.417-0.253,0.838-0.5,1.255-0.755C593.349,285.708,593.496,285.596,593.622,285.479z M544.133,135.294
	c0.066,0.08,0.155,0.152,0.206,0.239c0.334,0.544,0.329,0.548-0.232,0.885c-1.469,0.886-2.944,1.767-4.414,2.665
	c-0.774,0.479-1.26,1.216-1.39,2.017c-0.005,0.018-0.008,0.033-0.007,0.042c-0.042,0.253-0.047,0.506-0.017,0.76
	c0.007,0.021,0.004,0.036,0.002,0.051c0.007,0.031,0.017,0.055,0.021,0.085c0.025,0.128,0.05,0.262,0.098,0.39
	c0.092,0.305,0.186,0.453,0.526,0.212c0.488-0.337,1.021-0.621,1.525-0.928c0.814-0.49,1.627-0.981,2.436-1.467
	c0.023-0.01,0.044-0.026,0.064-0.04c0.025-0.012,0.054-0.03,0.075-0.047c0.899-0.542,1.798-1.079,2.689-1.629
	c0.272-0.165,0.41-0.137,0.516,0.143c0.076,0.185,0.153,0.367,0.23,0.546c0.043-0.017,0.089-0.035,0.135-0.052
	c0.709-1.318,1.419-2.636,2.157-4.004c-0.701,0.005-1.389,0.01-2.069,0.013c-0.133,0.002-0.261,0.001-0.396,0.003
	c-0.043-0.001-0.087,0-0.124,0c-0.665,0.006-1.31,0.013-1.959,0.019C544.183,135.229,544.154,135.262,544.133,135.294z
	 M594.508,277.98c-1.478,0.889-2.953,1.771-4.422,2.663c-0.983,0.605-1.491,1.623-1.418,2.664c0.016,0.232,0.045,0.462,0.124,0.686
	c0.005,0.012,0.007,0.019,0.011,0.026c0.044,0.142,0.095,0.245,0.167,0.286c0.077,0.044,0.183,0.023,0.356-0.098
	c0.483-0.343,1.013-0.623,1.522-0.934c1.756-1.053,3.516-2.103,5.261-3.177c0.272-0.165,0.409-0.138,0.522,0.144
	c0.063,0.154,0.129,0.311,0.191,0.464c0.015,0.033,0.023,0.057,0.034,0.081c0.044-0.018,0.092-0.033,0.135-0.052
	c0.71-1.318,1.421-2.642,2.155-4.01c-1.556,0.014-3.051,0.026-4.548,0.04c-0.023,0.028-0.051,0.06-0.073,0.094
	c0.069,0.084,0.156,0.155,0.214,0.241C595.068,277.643,595.068,277.643,594.508,277.98z M560.183,259.63
	c-4.769,1.296-9.581,2.161-14.425,2.487c-12.175-7.194-25.385-13.495-39.419-18.767c-0.438-1.018-0.838-2.061-1.177-3.151
	c-0.205,0.825-0.414,1.65-0.621,2.476c-2.046-0.752-4.107-1.486-6.188-2.193c-4.226-1.437-8.521-2.778-12.879-4.025
	c-2.839-0.813-5.71-1.575-8.602-2.304c-8.66-2.184-17.547-3.996-26.635-5.395c-2.353-0.362-4.715-0.702-7.094-1.01
	c-17.591-2.271-35.862-3.012-54.553-2.034c-2.68,0.14-5.37,0.323-8.066,0.535c-4.646,0.365-9.318,0.839-14.009,1.422
	c-6.07,0.755-12.169,1.676-18.296,2.807c-0.853,0.134-1.7,0.281-2.551,0.42c-2.909,0.475-5.806,0.977-8.688,1.515
	c-14.201,2.649-28.048,6.059-41.46,10.14c-14.106,4.292-27.729,9.327-40.766,15.014c-6.33,2.762-12.521,5.678-18.564,8.736
	c-2.054,1.039-4.089,2.096-6.108,3.167c-0.237,0.126-0.474,0.252-0.711,0.378c-2.46,1.313-4.901,2.644-7.308,4.004
	c-16.531,9.342-31.771,19.765-45.446,31.019c1.863,1.479,3.086,3.729,3.184,6.339l0.408,7.809l0.617,11.82l4.85,92.884
	c0.308,6.489,1.628,12.959,4.755,17.982c2.189,3.716,5.588,6.807,10.385,8.655l3.059,0.965c0.579-1.831,0.852-3.765,1.126-5.697
	c0.257-2.946,0.512-5.891,0.255-9.336l-5.876-112.514c-0.087-2.029,0.499-3.936,1.581-5.474c0.919-1.304,2.189-2.346,3.762-2.931
	l5.762-2.998l21.201-11.032c1.303-0.934,2.817-1.464,4.538-1.594l49.64-2.535c1.028-0.473,2.02-0.72,3.165-0.651l45.413-2.153
	c2.738-0.146,5.393,1.028,7.052,3.233l31.563,38.549l-1.164-21.896c-0.259-3.444,1.721-6.519,4.538-7.985l28.267-14.965
	c1.11-0.323,2.22-0.644,3.234-0.66l51.997-2.765c4.767-0.18,8.679,3.409,8.858,8.173c-0.097,0.307,0.207,0.404,0.112,0.709
	l0.785,14.903c4.954-3.656,10.427-7.216,16.329-10.512c8.98-5.062,18.962-9.612,29.547-13.343c3.396-1.197,6.851-2.313,10.356-3.33
	c3.252-1.025,6.663-1.742,10.094-2.422c0.51-0.101,1.02-0.203,1.529-0.303c5.168-0.388,9.417-1.065,13.473-1.129
	c8.224-0.408,16.139,0.08,23.698,1.365c4.694,0.797,9.243,1.918,13.649,3.316c0.085-0.049,0.166-0.104,0.251-0.152
	c0.053-0.032,0.095-0.052,0.132-0.083c0.012-0.007,0.021-0.016,0.027-0.03c0.094-0.083,0.109-0.184,0.02-0.385
	c-0.021-0.048-0.039-0.09-0.058-0.136c-0.071-0.184-0.134-0.366-0.182-0.551c-0.332-1.215-0.041-2.293,0.829-3.136
	c0.211-0.208,0.446-0.371,0.693-0.525c1.432-0.858,2.857-1.724,4.288-2.575c0.212-0.123,0.233-0.208,0.135-0.448
	c-0.116-0.261-0.222-0.531-0.391-0.813c1.835-0.014,3.613-0.027,5.412-0.038c-0.372,1.445-1.254,2.611-1.876,3.901
	c-0.183,0.374-0.399,0.738-0.722,1.17c-0.077-0.163-0.157-0.327-0.235-0.489c-0.042-0.092-0.093-0.19-0.135-0.288
	c-0.07-0.156-0.154-0.169-0.306-0.083c-0.55,0.346-1.104,0.679-1.665,1.006c-0.168,0.097-0.148,0.173-0.08,0.334
	c0.072,0.163,0.148,0.326,0.218,0.491c0.204,0.476,0.364,0.966,0.334,1.502c-0.062,1.118-0.594,1.951-1.533,2.526
	c-0.196,0.117-0.396,0.237-0.593,0.356c2.602,0.967,5.142,2.045,7.627,3.214c0.036-0.125,0.085-0.237,0.117-0.366
	c5.665-22.842,11.329-45.68,16.995-68.525l0.293-1.181c-1.39,1.539-2.542,3.186-3.802,4.746
	C599.953,242.278,581.829,253.737,560.183,259.63z M576.645,192.716c-5.414,3.261-10.841,6.499-16.229,9.792
	c-4.403,2.683-6.284,7.655-4.766,12.295c0.36,1.11,0.688,1.667,1.953,0.783c1.791-1.251,3.729-2.286,5.597-3.418
	c6.457-3.884,12.924-7.747,19.348-11.682c0.998-0.618,1.498-0.506,1.907,0.523c0.265,0.673,0.555,1.336,0.829,2.009
	c0.167-0.065,0.333-0.126,0.491-0.194c2.614-4.85,5.224-9.7,7.932-14.72c-5.726,0.043-11.22,0.087-16.714,0.131
	c-0.09,0.115-0.186,0.234-0.275,0.351c0.26,0.296,0.569,0.559,0.772,0.884C578.704,191.468,578.694,191.479,576.645,192.716z"/>
</svg>
