<svg width="180" height="180" viewBox="0 0 180 180" fill="none" xmlns="http://www.w3.org/2000/svg">
<path d="M37.7174 18.0391L90 1.05146L142.283 18.0391L174.595 62.5134V117.487L142.283 161.961L90 178.949L37.7174 161.961L5.40491 117.487V62.5134L37.7174 18.0391Z" fill="#FCFF5C" stroke="black" stroke-width="2"/>
<g filter="url(#filter0_d)">
<path d="M56.5 108.4C54.1333 108.4 52.05 107.917 50.25 106.95C48.45 105.983 47.05 104.633 46.05 102.9C45.0833 101.133 44.6 99.1 44.6 96.8V84.2C44.6 81.9 45.0833 79.8833 46.05 78.15C47.05 76.3833 48.45 75.0167 50.25 74.05C52.05 73.0833 54.1333 72.6 56.5 72.6C58.8667 72.6 60.95 73.0833 62.75 74.05C64.5833 75.0167 65.9833 76.3833 66.95 78.15C67.95 79.8833 68.45 81.9 68.45 84.2V96.8C68.45 99.1 67.95 101.133 66.95 102.9C65.9833 104.633 64.5833 105.983 62.75 106.95C60.95 107.917 58.8667 108.4 56.5 108.4ZM56.5 105.35C59.0333 105.35 61.0667 104.583 62.6 103.05C64.1333 101.517 64.9 99.4833 64.9 96.95V84.15C64.9 81.6167 64.1333 79.5833 62.6 78.05C61.0667 76.4833 59.0333 75.7 56.5 75.7C54 75.7 51.9833 76.4833 50.45 78.05C48.9167 79.5833 48.15 81.6167 48.15 84.15V96.95C48.15 99.4833 48.9167 101.517 50.45 103.05C51.9833 104.583 54 105.35 56.5 105.35ZM97.6535 73.5C97.6535 73.1667 97.8202 73 98.1535 73H100.704C101.037 73 101.204 73.1667 101.204 73.5V107.5C101.204 107.833 101.037 108 100.704 108H98.2035C97.9702 108 97.7702 107.883 97.6035 107.65L80.5535 79.9C80.5202 79.8 80.4702 79.7667 80.4035 79.8C80.3368 79.8 80.3035 79.85 80.3035 79.95L80.3535 107.5C80.3535 107.833 80.1868 108 79.8535 108H77.3035C76.9702 108 76.8035 107.833 76.8035 107.5V73.5C76.8035 73.1667 76.9702 73 77.3035 73H79.8035C80.0368 73 80.2368 73.1167 80.4035 73.35L97.4535 101.1C97.4868 101.2 97.5369 101.25 97.6035 101.25C97.6702 101.217 97.7035 101.15 97.7035 101.05L97.6535 73.5ZM132.559 75.6C132.559 75.9333 132.392 76.1 132.059 76.1H113.659C113.526 76.1 113.459 76.1667 113.459 76.3V88.65C113.459 88.7833 113.526 88.85 113.659 88.85H126.559C126.892 88.85 127.059 89.0167 127.059 89.35V91.45C127.059 91.7833 126.892 91.95 126.559 91.95H113.659C113.526 91.95 113.459 92.0167 113.459 92.15V104.7C113.459 104.833 113.526 104.9 113.659 104.9H132.059C132.392 104.9 132.559 105.067 132.559 105.4V107.5C132.559 107.833 132.392 108 132.059 108H110.409C110.076 108 109.909 107.833 109.909 107.5V73.5C109.909 73.1667 110.076 73 110.409 73H132.059C132.392 73 132.559 73.1667 132.559 73.5V75.6Z" fill="black"/>
</g>
<defs>
<filter id="filter0_d" x="40.6" y="72.6" width="95.959" height="43.8" filterUnits="userSpaceOnUse" color-interpolation-filters="sRGB">
<feFlood flood-opacity="0" result="BackgroundImageFix"/>
<feColorMatrix in="SourceAlpha" type="matrix" values="0 0 0 0 0 0 0 0 0 0 0 0 0 0 0 0 0 0 127 0"/>
<feOffset dy="4"/>
<feGaussianBlur stdDeviation="2"/>
<feColorMatrix type="matrix" values="0 0 0 0 0 0 0 0 0 0 0 0 0 0 0 0 0 0 0.25 0"/>
<feBlend mode="normal" in2="BackgroundImageFix" result="effect1_dropShadow"/>
<feBlend mode="normal" in="SourceGraphic" in2="effect1_dropShadow" result="shape"/>
</filter>
</defs>
</svg>
