<svg width="113" height="57" viewBox="0 0 113 57" fill="none" xmlns="http://www.w3.org/2000/svg">
<g filter="url(#filter0_d)">
<path d="M20.5 42.4C18.1333 42.4 16.05 41.9167 14.25 40.95C12.45 39.9833 11.05 38.6333 10.05 36.9C9.08333 35.1333 8.6 33.1 8.6 30.8V18.2C8.6 15.9 9.08333 13.8833 10.05 12.15C11.05 10.3833 12.45 9.01667 14.25 8.05C16.05 7.08333 18.1333 6.6 20.5 6.6C22.8667 6.6 24.95 7.08333 26.75 8.05C28.5833 9.01667 29.9833 10.3833 30.95 12.15C31.95 13.8833 32.45 15.9 32.45 18.2V30.8C32.45 33.1 31.95 35.1333 30.95 36.9C29.9833 38.6333 28.5833 39.9833 26.75 40.95C24.95 41.9167 22.8667 42.4 20.5 42.4ZM20.5 39.35C23.0333 39.35 25.0667 38.5833 26.6 37.05C28.1333 35.5167 28.9 33.4833 28.9 30.95V18.15C28.9 15.6167 28.1333 13.5833 26.6 12.05C25.0667 10.4833 23.0333 9.7 20.5 9.7C18 9.7 15.9833 10.4833 14.45 12.05C12.9167 13.5833 12.15 15.6167 12.15 18.15V30.95C12.15 33.4833 12.9167 35.5167 14.45 37.05C15.9833 38.5833 18 39.35 20.5 39.35ZM50.6035 16.35C53.2702 16.35 55.3868 17.1333 56.9535 18.7C58.5535 20.2667 59.3535 22.3667 59.3535 25V41.5C59.3535 41.8333 59.1869 42 58.8535 42H56.3035C55.9702 42 55.8035 41.8333 55.8035 41.5V25.7C55.8035 23.8667 55.2368 22.3667 54.1035 21.2C53.0035 20.0333 51.5702 19.45 49.8035 19.45C47.9702 19.45 46.4868 20.0167 45.3535 21.15C44.2202 22.2833 43.6535 23.7667 43.6535 25.6V41.5C43.6535 41.8333 43.4868 42 43.1535 42H40.6035C40.2702 42 40.1035 41.8333 40.1035 41.5V17.2C40.1035 16.8667 40.2702 16.7 40.6035 16.7H43.1535C43.4868 16.7 43.6535 16.8667 43.6535 17.2V19.35C43.6535 19.4167 43.6702 19.4667 43.7035 19.5C43.7702 19.5333 43.8202 19.5167 43.8535 19.45C45.3202 17.3833 47.5702 16.35 50.6035 16.35ZM86.1148 25.1C86.2482 26.0333 86.3148 27.2 86.3148 28.6V30.2C86.3148 30.5333 86.1482 30.7 85.8148 30.7H69.6648C69.5315 30.7 69.4648 30.7667 69.4648 30.9C69.5315 32.7333 69.6315 33.9167 69.7648 34.45C70.1315 35.95 70.9148 37.1333 72.1148 38C73.3148 38.8667 74.8482 39.3 76.7148 39.3C78.1148 39.3 79.3482 38.9833 80.4148 38.35C81.4815 37.7167 82.3148 36.8167 82.9148 35.65C83.1148 35.35 83.3482 35.2833 83.6148 35.45L85.5648 36.6C85.8315 36.7667 85.8982 37 85.7648 37.3C84.9315 38.9 83.6815 40.1667 82.0148 41.1C80.3482 42 78.4315 42.45 76.2648 42.45C73.8982 42.4167 71.9148 41.85 70.3148 40.75C68.7148 39.65 67.5648 38.1167 66.8648 36.15C66.2648 34.55 65.9648 32.25 65.9648 29.25C65.9648 27.85 65.9815 26.7167 66.0148 25.85C66.0815 24.95 66.2148 24.15 66.4148 23.45C66.9815 21.2833 68.1148 19.55 69.8148 18.25C71.5482 16.95 73.6315 16.3 76.0648 16.3C79.0982 16.3 81.4315 17.0667 83.0648 18.6C84.6982 20.1333 85.7148 22.3 86.1148 25.1ZM76.0648 19.4C74.4315 19.4 73.0648 19.8333 71.9648 20.7C70.8982 21.5333 70.1982 22.6667 69.8648 24.1C69.6648 24.8 69.5315 25.9333 69.4648 27.5C69.4648 27.6333 69.5315 27.7 69.6648 27.7H82.6148C82.7482 27.7 82.8148 27.6333 82.8148 27.5C82.7482 26 82.6482 24.9333 82.5148 24.3C82.1482 22.8 81.3982 21.6167 80.2648 20.75C79.1648 19.85 77.7648 19.4 76.0648 19.4ZM96.425 30.6C96.0917 30.6 95.925 30.4333 95.925 30.1L95.675 7.5C95.675 7.16666 95.8417 7 96.175 7H98.725C99.0583 7 99.225 7.16666 99.225 7.5L98.925 30.1C98.925 30.4333 98.7583 30.6 98.425 30.6H96.425ZM97.225 41.8C96.425 41.8 95.7583 41.55 95.225 41.05C94.725 40.5167 94.475 39.85 94.475 39.05C94.475 38.2167 94.725 37.55 95.225 37.05C95.7583 36.5167 96.425 36.25 97.225 36.25C98.0583 36.25 98.725 36.5167 99.225 37.05C99.7583 37.55 100.025 38.2167 100.025 39.05C100.025 39.85 99.7583 40.5167 99.225 41.05C98.725 41.55 98.0583 41.8 97.225 41.8Z" fill="black"/>
</g>
<defs>
<filter id="filter0_d" x="0.600006" y="0.599998" width="111.425" height="55.85" filterUnits="userSpaceOnUse" color-interpolation-filters="sRGB">
<feFlood flood-opacity="0" result="BackgroundImageFix"/>
<feColorMatrix in="SourceAlpha" type="matrix" values="0 0 0 0 0 0 0 0 0 0 0 0 0 0 0 0 0 0 127 0"/>
<feOffset dx="2" dy="4"/>
<feGaussianBlur stdDeviation="5"/>
<feColorMatrix type="matrix" values="0 0 0 0 0 0 0 0 0 0 0 0 0 0 0 0 0 0 0.25 0"/>
<feBlend mode="normal" in2="BackgroundImageFix" result="effect1_dropShadow"/>
<feBlend mode="normal" in="SourceGraphic" in2="effect1_dropShadow" result="shape"/>
</filter>
</defs>
</svg>
