<?xml version="1.0" encoding="utf-8"?>
<!-- Generator: Adobe Illustrator 16.0.0, SVG Export Plug-In . SVG Version: 6.00 Build 0)  -->
<!DOCTYPE svg PUBLIC "-//W3C//DTD SVG 1.1//EN" "http://www.w3.org/Graphics/SVG/1.1/DTD/svg11.dtd">
<svg version="1.1" id="Layer_1" xmlns="http://www.w3.org/2000/svg" xmlns:xlink="http://www.w3.org/1999/xlink" x="0px" y="0px"
	 width="720px" height="720px" viewBox="0 0 720 720" enable-background="new 0 0 720 720" xml:space="preserve">
<path fill="#010101" d="M648.797,197.435c-15.558-41.748-51.945-70.203-93.531-71.863c-12.772-0.51-26.035,1.507-39.337,6.445
	c-7.795,2.712-15.252,6.44-21.692,10.847c-21.245,13.984-38.642,32.233-49.667,48.827c-2.256,3.395-4.244,6.719-5.943,9.924
	l-4.396-11.706l-8.123-21.624l-51.52,19.32l-23.727,24.065l17.543,46.892l-66.691-43.502l-37.084,13.561l-8.334,3.048l-20.528,7.647
	l-31.332,11.673l0.093,0.245l-23.819,23.82l41.69,111.514c2.712,6.779,4.068,13.898,3.729,21.015
	c-1.075,4.837-5.346,6.26-9.436,6.477c-0.929,0.03-1.855,0.028-2.766-0.037c-16.609-0.678-26.438-13.218-31.862-27.454
	l-41.69-111.514l-0.297,0.11l-0.042-0.11l-2.779,1.035l-49.08,18.284l-23.727,24.067l40.674,109.141
	c9.365,25.304,23.186,44.742,41.246,55.994c12.662,7.888,27.406,11.756,44.169,10.779c26.438-1.355,54.571-13.218,73.213-32.878
	c8.9-8.901,19.05-18.16,26.267-26.731c2.398-2.848,4.461-5.618,6.054-8.275l3.922,10.489l6.125,16.383l51.859-19.659l24.066-23.726
	h-0.34l-18.98-51.521l70.84,47.114l42.708-15.592l21.634-21.633l2.433-2.433l-2.93-7.799c3.519,1.375,7.122,2.547,10.794,3.517
	c19.286,5.101,40.506,4.469,61.959-3.513c3.97-1.497,7.959-3.206,11.962-5.187c19.577-9.697,39.46-26.116,58.878-58.197
	c1.017-1.696,2.033-3.389,2.712-5.085C658.288,262.853,660.66,228.958,648.797,197.435z M358.656,213.027l18.431-18.765l0.212-0.217
	l10.507,28.133l-0.174,0.176l-18.468,18.805L358.656,213.027z M391.147,231.718l0.048-0.048l4.067,10.508l-0.137,0.139
	l-18.505,18.842l-4.067-10.508L391.147,231.718z M188.503,276.75l18.529-18.866l0.113-0.116l10.508,28.134l-0.044,0.044
	l-18.598,18.936L188.503,276.75z M206.468,324.881l-4.068-10.507l18.643-18.981l4.067,10.506L206.468,324.881z M105.161,409.033
	l-9.53-25.514l8.076-8.224l10.566-10.758l10.508,28.132l-18.642,18.982L105.161,409.033z M113.934,431.649l-4.067-10.507
	l18.642-18.981l0.678,1.355c1.344,3.023,2.357,6.048,3.694,9.073c0.012,0.026,0.021,0.052,0.033,0.08L113.934,431.649z
	 M292.827,417.797c-1.605,3.212-3.491,6.307-5.68,9.276c-8.161,11.065-20.429,20.397-37.294,27.625l-4.406,1.694
	c-0.339,0-0.678,0.34-1.017,0.34c-0.339,0-0.678,0.338-1.017,0.338l-4.407,1.695c-51.521,16.271-85.754-8.473-103.719-57.282
	l-24.47-65.615l-13.831-37.086l34.685-12.969l4.294-1.606l39.319,105.073c6.439,16.948,18.642,31.185,37.962,31.862
	c5.762,0.338,11.524-0.678,16.948-2.712c5.423-2.033,10.847-5.083,14.914-9.15c13.897-13.221,13.897-31.862,7.457-48.81
	l-39.318-105.075l11.187-4.183l19.671-7.355l8.121-3.037l38.979,104.057C301.651,372.735,302.914,397.602,292.827,417.797z
	 M486.479,363.678l-28.171,10.351l-129.141-85.755l44.065,117.617l-39.319,14.574l-20.465-54.946l-48.341-129.782l1.93-0.717
	l33.661-12.502l124.732,81.687L383.4,191.673l38.64-14.575l7.731,20.552l4.761,12.656l54.116,143.873l2.876,7.647L486.479,363.678z
	 M599.665,323.563c-3.352,1.731-6.849,3.317-10.522,4.708c-39.271,14.6-78.164,1.713-103.496-26.853
	c-8.776-9.896-15.928-21.667-20.898-34.837c-4.864-13.205-7.197-26.765-7.104-39.963c0.271-38.296,21.083-73.54,60.657-88.16
	c18.01-6.696,35.938-7.646,52.519-3.958c32.099,7.139,59.137,31.674,71.876,65.647C660.358,247.771,644.546,300.369,599.665,323.563
	z M532.198,175.403c-32.2,11.864-38.979,45.081-27.793,74.909c11.185,29.827,37.623,50.164,70.162,38.301
	c32.2-12.203,38.979-45.081,27.793-74.57C590.837,184.216,564.398,163.541,532.198,175.403z M576.505,188.381l0.096-0.097
	c3.731,2.984,7.137,6.705,10.138,10.899c2.454,3.429,4.642,7.168,6.472,11.132l-18.643,18.642
	c-4.067-8.135-9.83-15.93-16.948-21.692L576.505,188.381z M561.694,277.82c-14.598,7.876-34.918-1.466-45.386-20.867
	c-10.468-19.401-7.118-41.514,7.48-49.39c5.02-2.708,10.717-3.381,16.457-2.308c10.951,2.046,22.062,10.446,28.929,23.175
	c4.273,7.918,6.241,16.288,6.084,23.958C575.031,263.509,570.335,273.158,561.694,277.82z M581.686,249.294v-0.338
	c-0.678-3.389-1.695-7.119-3.051-10.847l18.303-18.643c1.355,4.067,2.033,7.796,2.712,11.864L581.686,249.294z"/>
<path fill="#FFFFFF" d="M656.932,194.385c-11.186-30.167-32.539-54.232-58.978-67.112c-18.548-9.15-39.441-12.879-61.101-9.887
	c-8.026,1.109-16.157,3.134-24.314,6.158c-4.067,1.355-8.135,3.389-13.219,5.423c-3.729,2.034-7.457,4.067-10.847,6.44
	c-13.219,8.813-25.083,18.981-34.911,29.489c-4.901,5.199-9.282,10.527-13.113,15.787l-5.529-14.77c0-0.339-0.339-0.339-0.339-0.678
	c-1.695-4.746-6.779-7.118-11.524-5.423l-51.521,19.32h0.001c-1.017,0.339-2.033,1.017-3.05,1.695l-23.728,24.065
	c-2.372,2.373-3.39,6.102-2.034,9.491l8.135,21.693l-44.063-28.811c-2.373-1.695-5.422-2.034-8.134-1.017l-45.081,16.608
	c-1.176,0.294-2.095,0.859-2.982,1.662l-49.216,18.336c-1.694,0.678-3.051,1.694-4.067,3.05l-22.71,22.71
	c-3.05,2.373-4.067,6.44-2.711,10.169l41.691,111.515c1.355,3.39,2.033,6.438,2.711,9.49c0.339,2.034,0.678,4.068,0.678,6.1h-3.389
	c-5.423-0.338-9.83-2.372-13.22-5.421c-4.745-4.067-8.134-10.169-10.507-16.61l-41.691-111.514
	c-0.928-2.599-2.876-4.479-5.226-5.376c-1.94-0.741-4.153-0.813-6.299-0.047l-51.859,19.319c-1.017,0.34-2.034,1.018-3.05,2.034
	l-23.388,23.388c-3.051,2.373-4.067,6.44-2.712,10.17l40.674,109.141c10.508,27.454,25.761,48.81,46.437,61.013
	c9.122,5.471,19.098,8.988,29.989,10.509c7.32,1.021,15.05,1.151,23.226,0.335c21.692-2.371,42.369-10.166,59.655-22.369
	c5.084-3.389,9.83-7.457,13.897-11.864l0.339-0.338c2.034-2.034,4.746-4.407,7.118-6.779c5.839-5.657,11.671-11.314,16.717-16.917
	l4.298,11.494c1.694,4.745,6.779,7.117,11.524,5.423l51.86-19.319c1.017-0.34,2.033-1.018,3.05-2.034l24.065-24.066
	c1.696-1.356,2.712-3.728,2.712-6.1c0-1.695-0.678-3.39-1.356-4.745l-9.15-24.067l47.791,31.862
	c2.372,1.696,5.423,2.033,8.135,1.018l42.369-15.592c1.355-0.34,2.372-1.018,3.39-2.033l24.065-24.067
	c0.432-0.359,0.806-0.773,1.144-1.215c20.349,4.855,42.56,3.818,64.951-4.547c0.031-0.013,0.063-0.025,0.095-0.036
	c12.51-4.746,25.02-11.516,37.868-21.995c12.541-10.509,25.081-25.083,37.284-45.082c0.339-0.677,1.017-1.695,1.694-3.051
	c1.017-1.356,1.355-2.372,1.695-3.049c8.135-14.575,12.541-30.845,13.558-47.792C665.745,228.958,663.372,211.333,656.932,194.385z
	 M643.713,289.629c-0.679,1.696-1.695,3.39-2.712,5.085c-19.418,32.081-39.301,48.5-58.878,58.197
	c-4.003,1.981-7.992,3.69-11.962,5.187c-21.453,7.981-42.673,8.613-61.959,3.513c-3.672-0.97-7.275-2.142-10.794-3.517l2.93,7.799
	l-2.433,2.433l-21.634,21.633l-42.708,15.592l-70.84-47.114l18.98,51.521h0.34l-24.066,23.726l-51.859,19.659l-6.125-16.383
	l-3.922-10.489c-1.592,2.657-3.656,5.428-6.054,8.275c-7.216,8.571-17.366,17.83-26.267,26.731
	c-18.642,19.66-46.775,31.522-73.213,32.878c-16.764,0.977-31.507-2.892-44.169-10.779c-18.06-11.252-31.881-30.69-41.246-55.994
	L64.448,318.441l23.727-24.067l49.08-18.284l2.779-1.035l0.042,0.11l0.297-0.11l41.69,111.514
	c5.423,14.236,15.253,26.776,31.862,27.454c0.911,0.065,1.837,0.067,2.766,0.037c4.089-0.217,8.36-1.64,9.436-6.477
	c0.339-7.116-1.017-14.235-3.729-21.015l-41.69-111.514l23.819-23.82l-0.093-0.245l31.332-11.673l20.528-7.647l8.334-3.048
	l37.084-13.561l66.691,43.502l-17.543-46.892l23.727-24.065l51.52-19.32l8.123,21.624l4.396,11.706
	c1.699-3.205,3.688-6.529,5.943-9.924c11.025-16.593,28.422-34.842,49.667-48.827c6.44-4.406,13.897-8.135,21.692-10.847
	c13.302-4.938,26.564-6.955,39.337-6.445c41.586,1.66,77.974,30.115,93.531,71.863C660.66,228.958,658.288,262.853,643.713,289.629z
	 M434.532,210.306l-4.761-12.656l-7.731-20.552l-38.64,14.575l42.028,112.531l-124.732-81.687l-33.661,12.502l-1.93,0.717
	l48.341,129.782l20.465,54.946l39.319-14.574l-44.065-117.617l129.141,85.755l28.171-10.351l5.046-1.852l-2.876-7.647
	L434.532,210.306z M480.671,360.719l-21.686,7.886l-139.309-92.534l47.453,127.107l-30.166,11.185l-65.757-175.576l28.811-10.847
	l134.902,88.127l-0.193-0.516l-15.478-41.465l-29.748-79.702l29.827-11.186l7.589,20.301l5.065,13.553l49.85,133.361l3.252,8.7
	L480.671,360.719z M570.819,134.5c-16.58-3.688-34.509-2.737-52.519,3.958c-39.574,14.62-60.386,49.864-60.657,88.16
	c-0.093,13.199,2.24,26.758,7.104,39.963c4.971,13.169,12.122,24.941,20.898,34.837c25.332,28.565,64.225,41.453,103.496,26.853
	c3.674-1.391,7.171-2.976,10.522-4.708c44.881-23.194,60.693-75.792,43.03-123.416C629.956,166.173,602.918,141.638,570.819,134.5z
	 M603.643,315.775c-4.973,3.083-10.357,5.777-16.186,7.981c-42.219,15.698-83.981-1.96-107.224-36.798
	c-4.483-6.721-8.282-14.075-11.258-21.958c-2.9-7.872-4.85-15.876-5.889-23.845c-1.629-12.479-0.995-24.868,1.828-36.53
	c0.034-0.142,0.075-0.282,0.11-0.424c0.285-1.156,0.578-2.31,0.907-3.451c7.388-25.64,25.647-47.289,54.052-57.782
	c21.864-8.129,43.607-7.37,62.719,0.104c18.004,7.04,33.673,20.038,44.909,37.19c0.31,0.474,0.614,0.955,0.919,1.436
	c0.039,0.063,0.08,0.125,0.119,0.188c3.859,6.133,7.163,12.77,9.814,19.839C654.452,244.833,641.641,292.211,603.643,315.775z
	 M530.504,170.998c-33.556,12.541-43.386,47.453-30.845,80.67c12.541,33.556,42.708,53.553,76.264,41.013
	c33.556-12.542,43.047-47.114,30.505-80.67C593.888,178.454,564.06,158.456,530.504,170.998z M574.567,288.613
	c-32.539,11.862-58.978-8.474-70.162-38.301c-11.186-29.828-4.407-63.045,27.793-74.909c32.2-11.863,58.639,8.813,70.162,38.64
	C613.546,243.533,606.768,276.411,574.567,288.613z M252.226,240.821l-8.121,3.037l-19.671,7.355l-11.187,4.183l39.318,105.075
	c6.44,16.948,6.44,35.589-7.457,48.81c-4.067,4.067-9.49,7.117-14.914,9.15c-5.423,2.034-11.186,3.05-16.948,2.712
	c-19.32-0.678-31.522-14.914-37.962-31.862l-39.319-105.073l-4.294,1.606l-34.685,12.969l13.831,37.086l24.47,65.615
	c17.965,48.81,52.198,73.553,103.719,57.282l4.407-1.695c0.338,0,0.678-0.338,1.017-0.338c0.338,0,0.678-0.34,1.017-0.34
	l4.406-1.694c16.866-7.228,29.134-16.56,37.294-27.625c2.188-2.97,4.075-6.064,5.68-9.276c10.087-20.195,8.824-45.062-1.622-72.918
	L252.226,240.821z M290.55,411.708c-1.417,3.479-3.189,6.868-5.354,10.146c-7.927,11.999-21.117,22.508-41.444,30.474
	c-0.339,0-0.678,0.338-1.017,0.338c-0.339,0-0.678,0.34-1.016,0.34c-56.944,20.335-87.11-12.202-102.363-52.878l-26.307-71.546
	l-9.96-27.088l25.227-9.354l4.94-1.832l37.623,100.669c12.541,33.216,38.979,39.995,61.011,31.86
	c22.032-8.474,37.962-30.845,25.083-64.061l-37.624-100.669l4.282-1.587l12.417-4.604l13.467-4.993l37.284,99.652
	C295.053,368.523,298.731,391.611,290.55,411.708z"/>
<path fill="#F7DA28" d="M431.982,217.053l-5.065-13.553l-7.589-20.301l-29.827,11.186l29.748,79.702l15.478,41.465l0.193,0.516
	l-134.902-88.127l-28.811,10.847l65.757,175.576l30.166-11.185l-47.453-127.107l139.309,92.534l21.686-7.886l4.413-1.605l-3.252-8.7
	L431.982,217.053z M638.465,201.725c-2.651-7.069-5.955-13.707-9.814-19.839c-0.039-0.063-0.08-0.125-0.119-0.188
	c-0.304-0.482-0.611-0.96-0.919-1.436c-11.236-17.152-26.905-30.15-44.909-37.19c-19.111-7.473-40.854-8.233-62.719-0.104
	c-28.404,10.493-46.664,32.142-54.052,57.782c-0.324,1.143-0.628,2.292-0.907,3.451c-0.036,0.142-0.076,0.282-0.11,0.424
	c-2.823,11.663-3.457,24.051-1.828,36.53c1.039,7.969,2.988,15.974,5.889,23.845c2.976,7.883,6.774,15.237,11.258,21.958
	c23.242,34.838,65.005,52.497,107.224,36.798c5.828-2.204,11.213-4.898,16.186-7.981
	C641.641,292.211,654.452,244.833,638.465,201.725z M575.923,292.681c-33.556,12.541-63.723-7.457-76.264-41.013
	c-12.541-33.218-2.711-68.129,30.845-80.67c33.556-12.542,63.384,7.457,75.924,41.013
	C618.97,245.567,609.479,280.139,575.923,292.681z M249.514,246.922l-13.467,4.993l-12.417,4.604l-4.282,1.587l37.624,100.669
	c12.88,33.216-3.05,55.587-25.083,64.061c-22.031,8.135-48.47,1.355-61.011-31.86l-37.623-100.669l-4.94,1.832l-25.227,9.354
	l9.96,27.088l26.307,71.546c15.253,40.676,45.419,73.213,102.363,52.878c0.338,0,0.677-0.34,1.016-0.34
	c0.339,0,0.678-0.338,1.017-0.338c20.327-7.966,33.517-18.475,41.444-30.474c2.166-3.277,3.938-6.667,5.354-10.146
	c8.181-20.097,4.502-43.185-3.752-65.134L249.514,246.922z"/>
<path fill="#59595B" d="M391.147,231.718l-18.594,18.932l4.067,10.508l18.505-18.842l0.137-0.139l-4.067-10.508L391.147,231.718z
	 M387.806,222.179l-10.507-28.133l-0.212,0.217l-18.431,18.765l10.508,28.132l18.468-18.805L387.806,222.179z M202.4,314.374
	l4.068,10.507l18.642-18.982l-4.067-10.506L202.4,314.374z M217.653,285.902l-10.508-28.134l-0.113,0.116l-18.529,18.866
	l10.508,28.132l18.598-18.936L217.653,285.902z M114.273,364.538l-10.566,10.758l-8.076,8.224l9.53,25.514l0.978,2.619
	l18.642-18.982L114.273,364.538z M129.188,403.517l-0.678-1.355l-18.642,18.981l4.067,10.507l18.981-18.979
	c-0.012-0.028-0.021-0.054-0.033-0.08C131.544,409.564,130.531,406.54,129.188,403.517z M599.649,231.331
	c-0.679-4.068-1.356-7.796-2.712-11.864l-18.303,18.643c1.355,3.728,2.373,7.458,3.051,10.847v0.338L599.649,231.331z
	 M586.738,199.183c-3.001-4.195-6.406-7.915-10.138-10.899l-0.096,0.097l-18.886,18.884c7.118,5.762,12.881,13.558,16.948,21.692
	l18.643-18.642C591.38,206.352,589.192,202.612,586.738,199.183z"/>
<path fill="#EC2227" d="M507.582,371.118c-0.338,0.441-0.712,0.855-1.144,1.215L482.373,396.4c-1.018,1.016-2.034,1.693-3.39,2.033
	l-42.369,15.592c-2.712,1.016-5.763,0.679-8.135-1.018l-47.791-31.862l9.15,24.067c0.679,1.355,1.356,3.05,1.356,4.745
	c0,2.372-1.016,4.743-2.712,6.1l-24.065,24.066c-1.017,1.017-2.033,1.694-3.05,2.034l-51.86,19.319
	c-4.745,1.694-9.83-0.678-11.524-5.423l-4.298-11.494c-5.046,5.603-10.877,11.26-16.717,16.917
	c-2.373,2.372-5.084,4.745-7.118,6.779l-0.339,0.338c-4.067,4.407-8.813,8.476-13.897,11.864
	c-17.286,12.203-37.962,19.998-59.655,22.369c-8.176,0.816-15.906,0.687-23.226-0.335c63.741,36.85,159.3,33.484,259.135-15.933
	c57.828-28.598,106.423-72.981,140.759-120.025c-0.032,0.011-0.063,0.023-0.095,0.036
	C550.142,374.937,527.931,375.974,507.582,371.118z M200.366,400.468c3.39,3.049,7.796,5.083,13.22,5.421h3.389
	c0-2.031-0.339-4.065-0.678-6.1c-0.678-3.052-1.355-6.101-2.711-9.49l-41.691-111.515c-1.356-3.729-0.339-7.796,2.711-10.169
	l22.71-22.71c1.016-1.356,2.373-2.372,4.067-3.05l49.216-18.336c0.887-0.803,1.806-1.368,2.982-1.662l45.081-16.608
	c2.712-1.017,5.762-0.678,8.134,1.017l44.063,28.811l-8.135-21.693c-1.356-3.389-0.338-7.118,2.034-9.491l23.728-24.065
	c1.017-0.678,2.033-1.356,3.05-1.695h-0.001l51.521-19.32c4.745-1.695,9.829,0.678,11.524,5.423c0,0.339,0.339,0.339,0.339,0.678
	l5.529,14.77c3.831-5.259,8.212-10.588,13.113-15.787c9.828-10.507,21.692-20.676,34.911-29.489c3.39-2.373,7.118-4.406,10.847-6.44
	c5.084-2.034,9.151-4.067,13.219-5.423c8.157-3.024,16.288-5.049,24.314-6.158c-10.688-4.152-22.386-7.771-35.16-10.789
	c-62.367-14.575-138.631-6.779-209.472,30.844c-64.569,32.042-116.44,79.037-149.279,129.526c2.349,0.897,4.297,2.777,5.226,5.376
	l41.691,111.514C192.232,390.299,195.622,396.4,200.366,400.468z M523.789,207.563c-14.599,7.876-17.948,29.989-7.48,49.39
	c10.468,19.401,30.788,28.743,45.386,20.867c8.641-4.662,13.337-14.311,13.564-25.433c0.157-7.669-1.811-16.039-6.084-23.958
	c-6.867-12.729-17.978-21.129-28.929-23.175C534.506,204.182,528.809,204.854,523.789,207.563z"/>
</svg>
