<svg width="203" height="292" viewBox="0 0 203 292" fill="none" xmlns="http://www.w3.org/2000/svg">
<rect width="203" height="292" rx="20" fill="#FF8329"/>
<rect x="17" y="15" width="168" height="263" rx="15" stroke="#FFFBFB" stroke-width="10"/>
<path d="M60.0962 88.6939L101.5 75.0529L142.904 88.6939L168.501 124.418V168.582L142.904 204.306L101.5 217.947L60.0962 204.306L34.4995 168.582V124.418L60.0962 88.6939Z" fill="#FCFF5C" stroke="black" stroke-width="2"/>
<g filter="url(#filter0_d)">
<path d="M70.5 163.4C68.1333 163.4 66.05 162.917 64.25 161.95C62.45 160.983 61.05 159.633 60.05 157.9C59.0833 156.133 58.6 154.1 58.6 151.8V139.2C58.6 136.9 59.0833 134.883 60.05 133.15C61.05 131.383 62.45 130.017 64.25 129.05C66.05 128.083 68.1333 127.6 70.5 127.6C72.8667 127.6 74.95 128.083 76.75 129.05C78.5833 130.017 79.9833 131.383 80.95 133.15C81.95 134.883 82.45 136.9 82.45 139.2V151.8C82.45 154.1 81.95 156.133 80.95 157.9C79.9833 159.633 78.5833 160.983 76.75 161.95C74.95 162.917 72.8667 163.4 70.5 163.4ZM70.5 160.35C73.0333 160.35 75.0667 159.583 76.6 158.05C78.1333 156.517 78.9 154.483 78.9 151.95V139.15C78.9 136.617 78.1333 134.583 76.6 133.05C75.0667 131.483 73.0333 130.7 70.5 130.7C68 130.7 65.9833 131.483 64.45 133.05C62.9167 134.583 62.15 136.617 62.15 139.15V151.95C62.15 154.483 62.9167 156.517 64.45 158.05C65.9833 159.583 68 160.35 70.5 160.35ZM100.604 137.35C103.27 137.35 105.387 138.133 106.954 139.7C108.554 141.267 109.354 143.367 109.354 146V162.5C109.354 162.833 109.187 163 108.854 163H106.304C105.97 163 105.804 162.833 105.804 162.5V146.7C105.804 144.867 105.237 143.367 104.104 142.2C103.004 141.033 101.57 140.45 99.8035 140.45C97.9702 140.45 96.4868 141.017 95.3535 142.15C94.2202 143.283 93.6535 144.767 93.6535 146.6V162.5C93.6535 162.833 93.4868 163 93.1535 163H90.6035C90.2702 163 90.1035 162.833 90.1035 162.5V138.2C90.1035 137.867 90.2702 137.7 90.6035 137.7H93.1535C93.4868 137.7 93.6535 137.867 93.6535 138.2V140.35C93.6535 140.417 93.6702 140.467 93.7035 140.5C93.7702 140.533 93.8202 140.517 93.8535 140.45C95.3202 138.383 97.5702 137.35 100.604 137.35ZM136.115 146.1C136.248 147.033 136.315 148.2 136.315 149.6V151.2C136.315 151.533 136.148 151.7 135.815 151.7H119.665C119.532 151.7 119.465 151.767 119.465 151.9C119.532 153.733 119.632 154.917 119.765 155.45C120.132 156.95 120.915 158.133 122.115 159C123.315 159.867 124.848 160.3 126.715 160.3C128.115 160.3 129.348 159.983 130.415 159.35C131.482 158.717 132.315 157.817 132.915 156.65C133.115 156.35 133.348 156.283 133.615 156.45L135.565 157.6C135.832 157.767 135.898 158 135.765 158.3C134.932 159.9 133.682 161.167 132.015 162.1C130.348 163 128.432 163.45 126.265 163.45C123.898 163.417 121.915 162.85 120.315 161.75C118.715 160.65 117.565 159.117 116.865 157.15C116.265 155.55 115.965 153.25 115.965 150.25C115.965 148.85 115.982 147.717 116.015 146.85C116.082 145.95 116.215 145.15 116.415 144.45C116.982 142.283 118.115 140.55 119.815 139.25C121.548 137.95 123.632 137.3 126.065 137.3C129.098 137.3 131.432 138.067 133.065 139.6C134.698 141.133 135.715 143.3 136.115 146.1ZM126.065 140.4C124.432 140.4 123.065 140.833 121.965 141.7C120.898 142.533 120.198 143.667 119.865 145.1C119.665 145.8 119.532 146.933 119.465 148.5C119.465 148.633 119.532 148.7 119.665 148.7H132.615C132.748 148.7 132.815 148.633 132.815 148.5C132.748 147 132.648 145.933 132.515 145.3C132.148 143.8 131.398 142.617 130.265 141.75C129.165 140.85 127.765 140.4 126.065 140.4ZM146.425 151.6C146.092 151.6 145.925 151.433 145.925 151.1L145.675 128.5C145.675 128.167 145.842 128 146.175 128H148.725C149.058 128 149.225 128.167 149.225 128.5L148.925 151.1C148.925 151.433 148.758 151.6 148.425 151.6H146.425ZM147.225 162.8C146.425 162.8 145.758 162.55 145.225 162.05C144.725 161.517 144.475 160.85 144.475 160.05C144.475 159.217 144.725 158.55 145.225 158.05C145.758 157.517 146.425 157.25 147.225 157.25C148.058 157.25 148.725 157.517 149.225 158.05C149.758 158.55 150.025 159.217 150.025 160.05C150.025 160.85 149.758 161.517 149.225 162.05C148.725 162.55 148.058 162.8 147.225 162.8Z" fill="black"/>
</g>
<path d="M0 0V-1H-1V0H0ZM203 0H204V-1H203V0ZM203 292V293H204V292H203ZM0 292H-1V293H0V292ZM0 1H203V-1H0V1ZM202 0V292H204V0H202ZM203 291H0V293H203V291ZM1 292V0H-1V292H1Z" fill="white"/>
<defs>
<filter id="filter0_d" x="50.6" y="121.6" width="111.425" height="55.85" filterUnits="userSpaceOnUse" color-interpolation-filters="sRGB">
<feFlood flood-opacity="0" result="BackgroundImageFix"/>
<feColorMatrix in="SourceAlpha" type="matrix" values="0 0 0 0 0 0 0 0 0 0 0 0 0 0 0 0 0 0 127 0"/>
<feOffset dx="2" dy="4"/>
<feGaussianBlur stdDeviation="5"/>
<feColorMatrix type="matrix" values="0 0 0 0 0 0 0 0 0 0 0 0 0 0 0 0 0 0 0.25 0"/>
<feBlend mode="normal" in2="BackgroundImageFix" result="effect1_dropShadow"/>
<feBlend mode="normal" in="SourceGraphic" in2="effect1_dropShadow" result="shape"/>
</filter>
</defs>
</svg>





