<?xml version="1.0" encoding="iso-8859-1"?>
<!-- Generator: Adobe Illustrator 19.0.0, SVG Export Plug-In . SVG Version: 6.00 Build 0)  -->
<svg version="1.1" id="Layer_1" xmlns="http://www.w3.org/2000/svg" xmlns:xlink="http://www.w3.org/1999/xlink" x="0px" y="0px"
	 viewBox="0 0 512 512" style="enable-background:new 0 0 512 512;" xml:space="preserve">
<g>
	<g>
		<path d="M317.915,59.446c-11.041-5.908-24.371-5.262-34.788,1.683l-145.642,97.097H82.27c-14.16,0-25.795,10.932-26.958,24.795
			h-7.795C21.315,183.021,0,204.337,0,230.538v50.924c0,26.201,21.315,47.517,47.517,47.517h7.795
			c1.163,13.864,12.798,24.795,26.958,24.795h55.214l145.642,97.097c5.68,3.787,12.227,5.701,18.794,5.701
			c5.477,0,10.972-1.331,15.994-4.017c11.041-5.909,17.899-17.357,17.899-29.879V89.325
			C335.813,76.803,328.955,65.355,317.915,59.446z M55.197,302.091h-7.68c-11.374,0-20.628-9.254-20.628-20.628v-50.924
			c0-11.374,9.254-20.628,20.628-20.628h7.68V302.091z M128.111,326.885h-0.001H82.27c-0.101,0-0.184-0.082-0.184-0.184v-11.167
			V185.298c0-0.101,0.083-0.184,0.184-0.184h45.841V326.885z M308.924,422.676c0,3.783-2.585,5.576-3.696,6.171
			c-1.112,0.593-4.039,1.751-7.186-0.348l-143.042-95.364V178.865l143.042-95.364c3.146-2.099,6.073-0.943,7.186-0.348
			c1.111,0.594,3.696,2.386,3.696,6.171V422.676z"/>
	</g>
</g>
<g>
	<g>
		<path d="M471.555,256l36.901-36.901c4.726-4.726,4.726-12.388,0-17.114c-4.727-4.724-12.387-4.724-17.114,0l-36.901,36.901
			l-36.901-36.901c-4.726-4.723-12.385-4.726-17.112,0c-4.726,4.726-4.726,12.388,0,17.114L437.328,256l-36.901,36.901
			c-4.726,4.726-4.726,12.388,0,17.114c2.364,2.362,5.46,3.544,8.556,3.544s6.193-1.182,8.556-3.544l36.901-36.902l36.901,36.902
			c2.364,2.362,5.46,3.544,8.556,3.544s6.193-1.182,8.556-3.544c4.726-4.726,4.726-12.388,0-17.114L471.555,256z"/>
	</g>
</g>
<g>
</g>
<g>
</g>
<g>
</g>
<g>
</g>
<g>
</g>
<g>
</g>
<g>
</g>
<g>
</g>
<g>
</g>
<g>
</g>
<g>
</g>
<g>
</g>
<g>
</g>
<g>
</g>
<g>
</g>
</svg>
