<?xml version="1.0" encoding="iso-8859-1"?>
<!-- Generator: Adobe Illustrator 18.1.1, SVG Export Plug-In . SVG Version: 6.00 Build 0)  -->
<svg version="1.1" id="Capa_1" xmlns="http://www.w3.org/2000/svg" xmlns:xlink="http://www.w3.org/1999/xlink" x="0px" y="0px"
	 viewBox="0 0 612 612" style="enable-background:new 0 0 612 612;" xml:space="preserve">
<g>
	<g>
		<g>
			<path d="M573.005,139.032c-25.391-48.924-60.768-85.841-102.301-106.77c-7.963-4.009-17.666-1.333-22.447,6.189l-32.531,51.195
				c-2.727,4.289-3.433,9.557-1.937,14.415c1.496,4.856,5.047,8.813,9.713,10.822c54.244,23.376,93.615,103.85,93.615,191.351
				c0,86.457-38.84,166.67-92.354,190.736c-4.555,2.05-8.009,5.963-9.472,10.741c-1.464,4.778-0.797,9.953,1.832,14.205
				l31.807,51.451c3.263,5.277,8.931,8.227,14.767,8.227c2.663,0,5.359-0.613,7.877-1.9c41.314-21.098,76.476-58.03,101.691-106.809
				C598.605,423.863,612,366.237,612,306.235C612,245.999,598.516,188.182,573.005,139.032z M469.611,540.835l-13.371-21.628
				c57.071-36.825,95.572-120.91,95.572-212.973c0-93.07-38.963-177.409-96.75-213.799l13.637-21.462
				c65.52,41.532,108.606,133.634,108.606,235.259C577.304,407.212,534.596,499.011,469.611,540.835z"/>
			<path d="M489.326,306.734c0-70.144-29.601-134.685-79.181-172.64c-3.861-2.956-8.794-4.153-13.578-3.306
				c-4.789,0.853-9.002,3.673-11.61,7.779l-31.835,50.103c-4.558,7.175-3.245,16.596,3.098,22.253
				c23.557,20.998,38.19,57.713,38.19,95.81c0,37.383-13.563,72.556-36.283,94.089c-5.971,5.658-7.146,14.731-2.815,21.724
				l31.408,50.716c2.604,4.204,6.878,7.098,11.749,7.954c0.998,0.175,2.002,0.26,3,0.26c3.874,0,7.671-1.298,10.756-3.736
				C460.505,439.589,489.326,375.661,489.326,306.734z M405.276,437.322l-13.465-21.741c23.548-27.95,37.296-67.561,37.296-108.847
				c0-42.691-14.475-83.116-39.278-111.137l13.585-21.38c32.352,32.252,51.218,80.391,51.218,132.517
				C454.631,357.664,436.463,405.054,405.276,437.322z"/>
			<path d="M303.412,101.573c-5.979-2.9-13.092-2.132-18.309,1.985l-133.679,105.36h-21.2h-12.551H80.637
				C36.173,208.918,0,252.468,0,305.999s36.173,97.081,80.637,97.081h37.035h12.551h21.2l133.679,105.363
				c3.118,2.459,6.915,3.724,10.741,3.724c2.575,0,5.162-0.574,7.568-1.739c5.981-2.903,9.777-8.964,9.777-15.609V117.181
				C313.189,110.534,309.392,104.473,303.412,101.573z M100.324,368.385H80.637c-25.332,0-45.941-27.986-45.941-62.386
				s20.609-62.386,45.941-62.386h19.687V368.385z M278.493,459.057l-110.318-86.949c-3.059-2.411-6.841-3.724-10.738-3.724h-22.418
				V243.612h22.418c3.896,0,7.679-1.313,10.738-3.724l110.318-86.949V459.057z"/>
		</g>
	</g>
</g>
<g>
</g>
<g>
</g>
<g>
</g>
<g>
</g>
<g>
</g>
<g>
</g>
<g>
</g>
<g>
</g>
<g>
</g>
<g>
</g>
<g>
</g>
<g>
</g>
<g>
</g>
<g>
</g>
<g>
</g>
</svg>
